<svg width="283" height="270" viewBox="0 0 283 270" fill="none" xmlns="http://www.w3.org/2000/svg">
<path d="M230.489 31.5068C261.84 57.9669 285.904 95.2672 282.716 136.157C279.565 176.579 247.848 206.08 215.024 229.898C181.049 254.552 142.273 277.455 101.441 267.698C58.3642 257.405 24.2688 222.692 9.78147 180.857C-3.92388 141.279 8.22027 98.6458 30.6485 63.27C51.5498 30.3026 84.8196 7.80477 123.382 1.67556C161.892 -4.44522 200.697 6.36106 230.489 31.5068Z" fill="#27606C"/>
<path d="M229.737 30.2232C261.536 55.6053 285.945 91.3859 282.712 130.61C279.516 169.385 247.344 197.684 214.049 220.532C179.588 244.181 140.256 266.151 98.8376 256.792C55.1436 246.918 20.5594 213.619 5.86436 173.488C-8.03749 135.524 4.28077 94.6269 27.0306 60.6923C48.2315 29.0681 81.9783 7.4868 121.094 1.6073C160.155 -4.26412 199.517 6.1019 229.737 30.2232Z" fill="#4BCC94"/>
</svg>
