<svg width="977" height="442" viewBox="0 0 977 442" fill="none" xmlns="http://www.w3.org/2000/svg">
<path d="M793.683 51.5778C903.128 94.894 987.137 155.956 976.009 222.894C965.009 289.066 854.284 337.36 739.692 376.352C621.086 416.711 485.717 454.204 343.169 438.232C192.788 421.382 73.7591 364.555 23.1833 296.069C-24.6626 231.28 17.7331 161.487 96.031 103.575C168.998 49.6065 285.145 12.7767 419.768 2.74296C554.206 -7.27699 689.675 10.4133 793.683 51.5778Z" fill="#27606C"/>
<path d="M790.683 49.3607C900.128 90.8149 984.137 149.252 973.009 213.312C962.009 276.64 851.284 322.858 736.692 360.174C618.086 398.798 482.717 434.679 340.169 419.394C189.788 403.268 70.7591 348.884 20.1833 283.342C-27.6626 221.338 14.7331 154.545 93.031 99.123C165.998 47.4741 282.145 12.2275 416.768 2.62505C551.206 -6.96418 686.675 9.96566 790.683 49.3607Z" fill="#4BCC94"/>
</svg>
