<svg width="255" height="253" viewBox="0 0 255 253" fill="none" xmlns="http://www.w3.org/2000/svg">
<path d="M207.195 35.7062C235.736 59.8143 257.644 93.799 254.742 131.054C251.873 167.883 222.998 194.761 193.115 216.463C162.185 238.925 126.883 259.792 89.7094 250.903C50.4929 241.525 19.4526 209.897 6.26341 171.781C-6.21386 135.721 4.84211 96.8773 25.2606 64.646C44.2891 34.609 74.5777 14.111 109.685 8.52662C144.744 2.94991 180.071 12.7956 207.195 35.7062Z" fill="#27606C"/>
<path d="M205.383 28.7062C233.811 52.8143 255.633 86.799 252.743 124.054C249.885 160.883 221.124 187.761 191.358 209.463C160.55 231.925 125.388 252.792 88.3601 243.903C49.298 234.525 18.3799 202.897 5.24269 164.781C-7.18546 128.721 3.82698 89.8773 24.1651 57.646C43.1186 27.609 73.2881 7.11102 108.257 1.52662C143.178 -4.05009 178.366 5.79563 205.383 28.7062Z" fill="#4BCC94"/>
</svg>
