<svg width="191" height="116" viewBox="0 0 191 116" fill="none" xmlns="http://www.w3.org/2000/svg">
<path d="M96.0288 41.0525H95.9263H90.5766C88.372 41.0525 86.3688 40.1404 84.9172 38.671C83.4656 37.2017 82.5645 35.174 82.5645 32.943V31.3142H89.7808C90.7769 31.3142 91.7319 31.5006 92.614 31.8404C92.7413 30.7261 93.0614 29.6673 93.5394 28.6992C94.1929 27.3759 95.1432 26.229 96.3014 25.3483C96.6464 25.0868 97.1117 25.104 97.4347 25.3618C98.5847 26.2407 99.5287 27.3826 100.179 28.6991C100.657 29.6673 100.977 30.7261 101.105 31.8404C101.987 31.5006 102.942 31.3142 103.938 31.3142H111.154V32.943C111.154 35.174 110.253 37.2017 108.801 38.671C107.349 40.1404 105.347 41.0525 103.142 41.0525H97.9284C98.1749 42.2031 98.7456 43.2313 99.5391 44.0343C100.618 45.1265 102.109 45.8022 103.756 45.8022C104.271 45.8022 104.689 46.2251 104.689 46.7467C104.689 47.2683 104.271 47.6912 103.756 47.6912C101.594 47.6912 99.6364 46.8041 98.2195 45.3699C97.0862 44.2228 96.2991 42.7256 96.0288 41.0525ZM92.6001 33.902C91.7544 33.456 90.7954 33.2033 89.7808 33.2033H84.4362C84.5028 34.8101 85.1794 36.2652 86.2369 37.3354C87.351 38.4633 88.8871 39.1635 90.5766 39.1635H94.8614C94.3422 38.5606 93.8965 37.8904 93.5394 37.1676C93.0434 36.1635 92.7176 35.062 92.6001 33.902ZM98.8568 39.1635H103.142C104.831 39.1635 106.368 38.4633 107.482 37.3354C108.539 36.2652 109.216 34.8101 109.282 33.2033H103.938C102.923 33.2033 101.964 33.456 101.118 33.902C101.001 35.062 100.675 36.1635 100.179 37.1677C99.8222 37.8904 99.3765 38.5605 98.8568 39.1635ZM98.517 29.5403C98.102 28.7004 97.5377 27.949 96.8594 27.3216C96.181 27.949 95.6161 28.7005 95.2017 29.5403C94.6999 30.5558 94.4175 31.708 94.4175 32.9334C94.4175 34.1589 94.6999 35.311 95.2017 36.3264C95.6161 37.1663 96.1804 37.9178 96.8594 38.5451C97.5377 37.9178 98.102 37.1663 98.517 36.3264C99.0188 35.3109 99.3007 34.1589 99.3007 32.9334C99.3007 31.7079 99.0188 30.5558 98.517 29.5403Z" fill="#16F22C"/>
<path d="M48.746 58.9555C48.746 59.2669 48.5932 59.4212 48.2876 59.4212H42.1023V61.961C42.1023 62.2684 41.9494 62.4233 41.6438 62.4233H41.2647C40.9629 62.4233 40.812 62.2684 40.812 61.9593V56.9336C40.812 56.5077 41.0554 56.1354 41.542 55.8166C42.0966 55.448 42.8304 55.2628 43.7396 55.2628H44.7074C45.0129 55.2628 45.1657 55.4175 45.1657 55.7249V55.8719C45.1657 56.1832 45.0129 56.3397 44.7074 56.3397H43.8283C43.3586 56.3397 42.9549 56.4027 42.6135 56.5268C42.2721 56.6509 42.1023 56.8056 42.1023 56.9908V58.3447H48.2876C48.5932 58.3447 48.746 58.4973 48.746 58.8047V58.9555ZM60.2831 61.7679C60.2872 61.7853 60.2907 61.8137 60.2947 61.852C60.2982 61.8903 60.3005 61.9187 60.3005 61.9419C60.3005 62.0735 60.2797 62.1768 60.2397 62.2551C60.2004 62.3316 60.1454 62.3925 60.0759 62.4384C59.9098 62.5416 59.7605 62.595 59.625 62.595C59.5214 62.595 59.4271 62.5665 59.338 62.5091C59.2517 62.4517 59.1649 62.3583 59.0798 62.2261L57.9327 60.5441H52.4908L51.3344 62.2301C51.2968 62.3026 51.2628 62.3543 51.2288 62.3827C51.1496 62.4633 51.0515 62.5033 50.9364 62.5033C50.8609 62.5033 50.7666 62.4801 50.6553 62.4366C50.5271 62.3792 50.4384 62.3125 50.3893 62.2359C50.3385 62.1594 50.3139 62.0834 50.3139 62.0086C50.3139 61.9819 50.3158 61.961 50.3196 61.9419C50.3233 61.9227 50.329 61.9053 50.3365 61.8903L54.4205 55.5702C54.5242 55.4232 54.6355 55.322 54.7544 55.2666C54.8751 55.2113 55.026 55.1826 55.2109 55.1826C55.3542 55.1941 55.4636 55.2094 55.5372 55.2266C55.7617 55.2915 55.9013 55.4041 55.9559 55.5683L60.2831 61.7679ZM57.167 59.467L55.2109 56.546L53.2415 59.467H57.167ZM70.4831 60.6531C70.4831 61.0481 70.4171 61.3555 70.2852 61.5753C70.119 61.8543 69.825 62.0602 69.4002 62.1942C68.921 62.3467 68.2496 62.4233 67.386 62.4233H62.9172C62.6151 62.4233 62.464 62.2684 62.464 61.957V61.812C62.464 61.5011 62.6151 61.3462 62.9172 61.3462H67.386C68.0609 61.3462 68.5442 61.2755 68.8399 61.1339C69.0761 61.0232 69.193 60.8706 69.193 60.674V60.0575C69.193 59.8017 69.0437 59.6184 68.7456 59.5076C68.4475 59.3968 67.999 59.3412 67.4028 59.3412H65.6954C64.5824 59.3412 63.7564 59.1904 63.2153 58.8888C62.7036 58.6005 62.4472 58.1806 62.4472 57.6285V57.092C62.4472 56.4887 62.6567 56.0438 63.0775 55.7612C63.5678 55.4289 64.3977 55.2628 65.5692 55.2628H66.2273C66.5329 55.2628 66.6857 55.4175 66.6857 55.7249V55.8719C66.6857 56.1832 66.5329 56.3397 66.2273 56.3397H65.5524C64.9846 56.3397 64.5505 56.3932 64.2525 56.5001C63.9092 56.6243 63.7373 56.8171 63.7373 57.0844V57.5789C63.7373 57.829 63.8884 58.0008 64.1882 58.0965C64.488 58.1939 64.9823 58.2415 65.6711 58.2415H67.4011C68.3723 58.2415 69.1287 58.4021 69.6699 58.7206C70.2117 59.0413 70.4831 59.4711 70.4831 60.0116V60.6531ZM81.99 61.9593C81.99 62.2684 81.8355 62.4233 81.5281 62.4233H81.1623C80.8544 62.4233 80.6999 62.2684 80.6999 61.961V59.4212H74.4524V61.961C74.4524 62.2684 74.2996 62.4233 73.994 62.4233H73.6149C73.3128 62.4233 73.1623 62.2684 73.1623 61.9593V55.7211C73.1623 55.4156 73.3128 55.2628 73.6149 55.2628H73.994C74.2996 55.2628 74.4524 55.4156 74.4524 55.7211V58.3447H80.6999V55.7211C80.6999 55.4156 80.8544 55.2628 81.1623 55.2628H81.5281C81.8355 55.2628 81.99 55.4156 81.99 55.7211V61.9593ZM86.0328 61.9593C86.0328 62.2684 85.88 62.4233 85.5744 62.4233H85.1953C84.8938 62.4233 84.7427 62.2684 84.7427 61.9593V55.7211C84.7427 55.4156 84.8938 55.2628 85.1953 55.2628H85.5744C85.88 55.2628 86.0328 55.4156 86.0328 55.7211V61.9593ZM97.3533 60.5023C97.3533 61.1015 97.1045 61.5637 96.6084 61.8868C96.0592 62.2435 95.2141 62.4233 94.071 62.4233H92.0621C91.2153 62.4233 90.5283 62.3183 90.0062 62.1101C89.5646 61.9361 89.2399 61.6878 89.0344 61.3671C88.8683 61.1113 88.7855 60.8231 88.7855 60.5081V57.2066C88.7855 56.5097 89.1079 55.9999 89.7515 55.6753C90.2962 55.4003 91.0642 55.2628 92.0563 55.2628H94.071C95.2842 55.2628 96.1402 55.4194 96.6403 55.7326C97.1155 56.0304 97.3533 56.5211 97.3533 57.2066V60.5023ZM96.0632 60.4716V57.2409C96.0632 56.9183 95.9006 56.6873 95.5765 56.5478C95.2518 56.4085 94.7598 56.3397 94.1011 56.3397H92.0487C91.4074 56.3397 90.9265 56.4065 90.6058 56.5402C90.2533 56.6892 90.0757 56.9221 90.0757 57.2409V60.4716C90.0757 60.7906 90.2476 61.0197 90.5908 61.1571C90.9039 61.283 91.3907 61.3462 92.0487 61.3462H94.1052C94.7407 61.3462 95.2141 61.2853 95.5273 61.1629C95.8838 61.0214 96.0632 60.7906 96.0632 60.4716ZM108.868 61.6629C108.868 61.9952 108.783 62.2209 108.613 62.3409C108.493 62.4268 108.291 62.4691 108.012 62.4691C107.904 62.4691 107.774 62.4134 107.619 62.3026C107.57 62.2667 107.504 62.211 107.419 62.1368L101.387 56.945V61.9686C101.387 62.2777 101.234 62.4326 100.929 62.4326H100.549C100.247 62.4326 100.096 62.2777 100.096 61.9686V55.9884V55.7307C100.096 55.6428 100.126 55.5626 100.185 55.49C100.244 55.4194 100.325 55.3545 100.428 55.2953C100.475 55.2647 100.53 55.2437 100.589 55.2285C100.647 55.2132 100.706 55.2056 100.761 55.2056C100.938 55.2056 101.134 55.2686 101.353 55.3946C101.423 55.4366 101.513 55.4996 101.622 55.5855L107.578 60.7105V55.7192C107.578 55.4137 107.73 55.2628 108.036 55.2628H108.409C108.715 55.2628 108.868 55.4156 108.868 55.7211V61.6629ZM131.41 56.0514L127.924 59.4403V61.961C127.924 62.2684 127.774 62.4233 127.47 62.4233H127.094C126.787 62.4233 126.634 62.2702 126.634 61.9668V59.4403L123.137 56.0514C123.001 55.9159 122.933 55.7822 122.933 55.6485C122.933 55.5358 122.98 55.4442 123.075 55.3717C123.169 55.2991 123.298 55.2628 123.46 55.2628H123.858C123.901 55.2628 123.957 55.2762 124.023 55.301C124.09 55.3258 124.138 55.3545 124.173 55.3888L127.272 58.3923L130.375 55.3888C130.405 55.3602 130.452 55.3316 130.52 55.3029C130.586 55.2762 130.643 55.2628 130.69 55.2628H131.094C131.252 55.2628 131.379 55.2991 131.473 55.3717C131.567 55.4442 131.614 55.5358 131.614 55.6485C131.614 55.7822 131.546 55.9159 131.41 56.0514ZM141.335 60.5023C141.335 61.1015 141.086 61.5637 140.59 61.8868C140.041 62.2435 139.196 62.4233 138.053 62.4233H136.044C135.197 62.4233 134.51 62.3183 133.988 62.1101C133.546 61.9361 133.222 61.6878 133.016 61.3671C132.85 61.1113 132.767 60.8231 132.767 60.5081V57.2066C132.767 56.5097 133.09 55.9999 133.733 55.6753C134.278 55.4003 135.046 55.2628 136.038 55.2628H138.053C139.266 55.2628 140.122 55.4194 140.622 55.7326C141.098 56.0304 141.335 56.5211 141.335 57.2066V60.5023ZM140.045 60.4716V57.2409C140.045 56.9183 139.883 56.6873 139.558 56.5478C139.234 56.4085 138.741 56.3397 138.083 56.3397H136.031C135.389 56.3397 134.908 56.4065 134.587 56.5402C134.235 56.6892 134.057 56.9221 134.057 57.2409V60.4716C134.057 60.7906 134.229 61.0197 134.572 61.1571C134.885 61.283 135.372 61.3462 136.031 61.3462H138.087C138.722 61.3462 139.196 61.2853 139.509 61.1629C139.865 61.0214 140.045 60.7906 140.045 60.4716ZM152.906 60.4066C152.906 60.7523 152.825 61.0556 152.663 61.3172C152.457 61.6519 152.122 61.9111 151.658 62.0927C151.101 62.3125 150.363 62.4233 149.447 62.4233H147.634C146.643 62.4233 145.881 62.3316 145.352 62.1501C144.883 61.9894 144.557 61.7453 144.372 61.417C144.236 61.1763 144.169 60.8381 144.169 60.4066V55.7211C144.169 55.4156 144.32 55.2628 144.621 55.2628H145C145.306 55.2628 145.459 55.4156 145.459 55.7211V60.319C145.459 60.7024 145.642 60.9721 146.006 61.1287C146.342 61.2737 146.889 61.3462 147.647 61.3462H149.428C150.197 61.3462 150.744 61.2772 151.069 61.1397C151.433 60.9831 151.616 60.7123 151.616 60.3248V55.7211C151.616 55.4156 151.769 55.2628 152.076 55.2628H152.452C152.755 55.2628 152.906 55.4156 152.906 55.7211V60.4066Z" fill="black"/>
<path d="M120.999 61.9589C120.999 62.268 120.846 62.4229 120.542 62.4229H120.001C119.701 62.4229 119.55 62.268 119.55 61.9589V60.6011H112.065C111.818 60.6011 111.642 60.5269 111.539 60.3778C111.454 60.2595 111.412 60.0838 111.412 59.8529V55.7267C111.412 55.4174 111.563 55.2627 111.863 55.2627H112.411C112.71 55.2627 112.861 55.4174 112.861 55.7267V59.364H119.55V55.7267C119.55 55.4174 119.701 55.2627 120.001 55.2627H120.542C120.846 55.2627 120.999 55.4174 120.999 55.7267V61.9589Z" fill="#16F22C"/>
<path d="M77.6338 69.3351H80.945C80.9091 70.1779 80.6377 70.8599 80.1336 71.3831C79.6294 71.9057 78.9893 72.1678 78.2166 72.1678C77.8138 72.1678 77.4439 72.0895 77.1048 71.9335C76.7662 71.7781 76.4623 71.5472 76.192 71.241C75.9646 70.987 75.7921 70.697 75.674 70.3716C75.5565 70.0462 75.498 69.6994 75.498 69.3287C75.498 68.95 75.5692 68.5921 75.7105 68.2528C75.8528 67.9147 76.0606 67.6096 76.3356 67.3376C76.5949 67.0754 76.8848 66.8794 77.2061 66.7501C77.5279 66.6196 77.8838 66.5552 78.2756 66.5552C78.8168 66.5552 79.2908 66.6828 79.6983 66.9386C80.1064 67.1943 80.4149 67.558 80.6226 68.0284H79.6699C79.4934 67.7993 79.2822 67.6276 79.0368 67.511C78.7908 67.3956 78.517 67.3376 78.2155 67.3376C77.9625 67.3376 77.7212 67.3857 77.4937 67.482C77.2651 67.5777 77.0625 67.7187 76.886 67.9008C76.7019 68.0904 76.5584 68.312 76.4559 68.5643C76.3518 68.8172 76.3008 69.0741 76.3008 69.3363C76.3008 69.617 76.3471 69.8832 76.4409 70.1349C76.5335 70.3855 76.6672 70.6018 76.8408 70.7857C77.0249 70.9777 77.2373 71.1273 77.4775 71.2335C77.7177 71.3402 77.9625 71.393 78.2126 71.393C78.6206 71.393 78.9795 71.2845 79.2908 71.0653C79.6022 70.846 79.8586 70.5224 80.0601 70.0943H77.6338V69.3351ZM85.4277 69.3363C85.4277 69.617 85.474 69.8832 85.5666 70.1349C85.6604 70.3855 85.7929 70.6018 85.9666 70.7857C86.1506 70.9777 86.3619 71.1273 86.6009 71.2335C86.8411 71.3402 87.0848 71.393 87.3337 71.393C87.8864 71.393 88.3477 71.1946 88.7193 70.7985C89.0909 70.4017 89.2767 69.9093 89.2767 69.3212C89.2767 69.0718 89.2321 68.8334 89.143 68.6072C89.0544 68.3804 88.9242 68.1728 88.7529 67.9831C88.5503 67.7627 88.3327 67.5998 88.1017 67.4942C87.8714 67.3892 87.615 67.3376 87.3337 67.3376C87.0825 67.3376 86.8434 67.3857 86.616 67.482C86.3879 67.5777 86.1871 67.7187 86.0106 67.9008C85.8282 68.0904 85.6841 68.312 85.5817 68.5643C85.4792 68.8172 85.4277 69.0741 85.4277 69.3363ZM84.625 69.3287C84.625 68.95 84.6961 68.5921 84.8374 68.2528C84.9786 67.9147 85.1864 67.6096 85.4601 67.3376C85.7194 67.0807 86.0065 66.8858 86.3231 66.7541C86.6397 66.6213 86.9795 66.5552 87.3435 66.5552C87.7163 66.5552 88.0624 66.6213 88.3813 66.7541C88.7002 66.8858 88.9919 67.083 89.2558 67.3451C89.5273 67.6148 89.731 67.9159 89.867 68.2488C90.0036 68.5829 90.0725 68.9425 90.0725 69.3287C90.0725 69.711 90.0135 70.0642 89.896 70.3867C89.7796 70.7097 89.6031 70.998 89.3693 71.2567C89.0932 71.5577 88.7841 71.7845 88.4438 71.9376C88.1029 72.0907 87.7336 72.1678 87.336 72.1678C86.9349 72.1678 86.5656 72.0895 86.2282 71.9335C85.889 71.7781 85.5869 71.5472 85.3178 71.241C85.0903 70.987 84.9178 70.697 84.8015 70.3716C84.684 70.0462 84.625 69.6994 84.625 69.3287ZM99.9813 72.0617H97.213V66.6613H99.9813V67.3828H97.9857V68.9929H99.9813V69.6994H97.9857V71.317H99.9813V72.0617ZM109.003 70.7097C108.772 71.1807 108.451 71.5414 108.042 71.792C107.633 72.0426 107.159 72.1678 106.619 72.1678C106.218 72.1678 105.85 72.0895 105.511 71.9335C105.173 71.7781 104.869 71.5472 104.602 71.241C104.374 70.987 104.201 70.697 104.085 70.3716C103.967 70.0462 103.909 69.6994 103.909 69.3287C103.909 68.9529 103.98 68.5956 104.121 68.2592C104.263 67.9211 104.47 67.6148 104.744 67.3376C105.003 67.0807 105.291 66.8858 105.607 66.7541C105.922 66.6213 106.262 66.5552 106.626 66.5552C107.174 66.5552 107.654 66.6857 108.068 66.9478C108.482 67.2094 108.793 67.5806 109.003 68.0591H108.095C107.924 67.8196 107.714 67.6398 107.465 67.5186C107.215 67.3985 106.934 67.3376 106.618 67.3376C106.366 67.3376 106.128 67.3857 105.899 67.482C105.672 67.5777 105.471 67.7187 105.295 67.9008C105.112 68.0904 104.968 68.312 104.866 68.5643C104.763 68.8172 104.712 69.0741 104.712 69.3363C104.712 69.617 104.758 69.8832 104.851 70.1349C104.944 70.3855 105.077 70.6018 105.251 70.7857C105.433 70.9777 105.645 71.1273 105.884 71.2335C106.123 71.3402 106.369 71.393 106.618 71.393C106.923 71.393 107.199 71.335 107.444 71.2172C107.689 71.1006 107.892 70.9313 108.051 70.7097H109.003ZM113.575 69.3363C113.575 69.617 113.621 69.8832 113.714 70.1349C113.807 70.3855 113.94 70.6018 114.114 70.7857C114.298 70.9777 114.509 71.1273 114.748 71.2335C114.988 71.3402 115.232 71.393 115.481 71.393C116.033 71.393 116.495 71.1946 116.866 70.7985C117.237 70.4017 117.424 69.9093 117.424 69.3212C117.424 69.0718 117.379 68.8334 117.29 68.6072C117.201 68.3804 117.071 68.1728 116.9 67.9831C116.697 67.7627 116.48 67.5998 116.248 67.4942C116.018 67.3892 115.762 67.3376 115.481 67.3376C115.23 67.3376 114.99 67.3857 114.763 67.482C114.535 67.5777 114.334 67.7187 114.158 67.9008C113.975 68.0904 113.831 68.312 113.729 68.5643C113.626 68.8172 113.575 69.0741 113.575 69.3363ZM112.772 69.3287C112.772 68.95 112.843 68.5921 112.984 68.2528C113.126 67.9147 113.333 67.6096 113.607 67.3376C113.866 67.0807 114.154 66.8858 114.47 66.7541C114.787 66.6213 115.126 66.5552 115.491 66.5552C115.863 66.5552 116.209 66.6213 116.528 66.7541C116.847 66.8858 117.139 67.083 117.403 67.3451C117.674 67.6148 117.878 67.9159 118.014 68.2488C118.151 68.5829 118.22 68.9425 118.22 69.3287C118.22 69.711 118.161 70.0642 118.043 70.3867C117.927 70.7097 117.75 70.998 117.516 71.2567C117.24 71.5577 116.931 71.7845 116.591 71.9376C116.25 72.0907 115.881 72.1678 115.483 72.1678C115.082 72.1678 114.713 72.0895 114.375 71.9335C114.036 71.7781 113.733 71.5472 113.465 71.241C113.237 70.987 113.065 70.697 112.949 70.3716C112.83 70.0462 112.772 69.6994 112.772 69.3287Z" fill="#16F22C"/>
<path d="M92.7527 21.5857C93.2175 21.8058 93.4183 22.3658 93.2013 22.8365C92.9837 23.3072 92.4303 23.5104 91.9656 23.2904C91.653 23.1416 91.3231 23.0262 90.9805 22.9491C90.8057 22.9097 90.6239 22.8803 90.4353 22.8616L89.9936 22.8888C88.6271 22.9729 87.4036 23.5789 86.5273 24.5226C85.6666 25.449 85.1399 26.7062 85.1399 28.1192C85.1399 28.6716 85.2435 29.2672 85.4311 29.8697C85.5827 30.3571 85.7864 30.8443 86.033 31.314H83.9748C83.8516 31.0205 83.7439 30.7251 83.6519 30.4306C83.4082 29.6468 83.2739 28.861 83.2739 28.1192C83.2739 26.2077 83.9945 24.4984 85.1712 23.2313C86.2003 22.1235 87.5784 21.3575 89.1289 21.0943C89.4727 19.3844 90.3542 17.8743 91.5859 16.7536C92.9125 15.5468 94.6431 14.788 96.5461 14.7125C96.5866 14.707 96.6283 14.7041 96.6705 14.7041C96.7307 14.7041 96.7909 14.7049 96.8505 14.7062L96.8604 14.7061C98.8867 14.7061 100.736 15.4807 102.135 16.7536C103.367 17.8743 104.248 19.3844 104.592 21.0943C106.142 21.3575 107.521 22.1235 108.55 23.2313C109.726 24.4984 110.447 26.2078 110.447 28.1192C110.447 28.8411 110.348 29.6194 110.162 30.4055C110.089 30.7092 110.004 31.013 109.905 31.314H107.926C108.103 30.8736 108.246 30.421 108.353 29.97C108.502 29.3446 108.581 28.7147 108.581 28.1192C108.581 26.7062 108.054 25.4489 107.193 24.5226C106.483 23.7577 105.545 23.2146 104.486 22.9915C104.474 23.3245 104.444 23.6493 104.398 23.9656C104.333 24.4147 104.236 24.8384 104.111 25.2367C103.956 25.7338 103.433 26.0097 102.942 25.8528C102.45 25.6959 102.178 25.1656 102.333 24.6684C102.429 24.3591 102.504 24.0336 102.554 23.6927C102.602 23.3593 102.627 23.0028 102.627 22.6227C102.627 20.9577 101.961 19.4501 100.883 18.3591C99.8406 17.304 98.4133 16.6382 96.8332 16.5954C95.2942 16.6023 93.8924 17.1912 92.8326 18.1556C91.9928 18.9197 91.3665 19.9174 91.054 21.0462C91.1634 21.0654 91.2728 21.0872 91.3816 21.1117C91.8614 21.2198 92.3204 21.38 92.7527 21.5857Z" fill="black"/>
</svg>
