<svg width="330" height="200" viewBox="0 0 330 200" fill="none" xmlns="http://www.w3.org/2000/svg">
<path d="M165.914 70.78H165.737H156.494C152.685 70.78 149.224 69.2074 146.716 66.674C144.208 64.1407 142.651 60.6446 142.651 56.798V53.9898H155.119C156.84 53.9898 158.49 54.3111 160.014 54.8971C160.234 52.9759 160.787 51.1503 161.613 49.4811C162.742 47.1996 164.384 45.2222 166.385 43.7038C166.981 43.2529 167.785 43.2826 168.343 43.7271C170.33 45.2424 171.961 47.2111 173.085 49.481C173.911 51.1503 174.464 52.9758 174.684 54.8971C176.208 54.3111 177.858 53.9898 179.579 53.9898H192.046V56.798C192.046 60.6446 190.49 64.1407 187.982 66.674C185.473 69.2074 182.013 70.78 178.204 70.78H169.196C169.622 72.7637 170.608 74.5365 171.979 75.921C173.843 77.8042 176.419 78.9691 179.264 78.9691C180.155 78.9691 180.877 79.6983 180.877 80.5976C180.877 81.4969 180.155 82.2261 179.264 82.2261C175.529 82.2261 172.147 80.6966 169.699 78.2237C167.741 76.246 166.381 73.6647 165.914 70.78ZM159.99 58.4516C158.529 57.6825 156.872 57.2468 155.119 57.2468H145.885C146 60.0172 147.169 62.526 148.996 64.3712C150.921 66.3158 153.575 67.523 156.494 67.523H163.897C163 66.4836 162.23 65.3281 161.613 64.0819C160.756 62.3507 160.193 60.4515 159.99 58.4516ZM170.8 67.523H178.204C181.122 67.523 183.777 66.3158 185.702 64.3712C187.529 62.526 188.698 60.0172 188.813 57.2468H179.579C177.826 57.2468 176.169 57.6825 174.707 58.4516C174.504 60.4515 173.942 62.3507 173.085 64.082C172.468 65.3281 171.698 66.4835 170.8 67.523ZM170.213 50.9313C169.496 49.4833 168.521 48.1877 167.349 47.106C166.177 48.1877 165.201 49.4834 164.485 50.9314C163.618 52.6823 163.13 54.6687 163.13 56.7815C163.13 58.8945 163.618 60.8808 164.485 62.6315C165.201 64.0797 166.176 65.3753 167.349 66.4569C168.521 65.3753 169.496 64.0797 170.213 62.6316C171.08 60.8807 171.567 58.8944 171.567 56.7815C171.567 54.6686 171.08 52.6823 170.213 50.9313Z" fill="#16F22C"/>
<path d="M84.2207 101.647C84.2207 102.184 83.9568 102.45 83.4288 102.45H72.7421V106.829C72.7421 107.359 72.478 107.626 71.95 107.626H71.295C70.7735 107.626 70.5128 107.359 70.5128 106.826V98.161C70.5128 97.4268 70.9333 96.7848 71.774 96.2351C72.7322 95.5997 74.0001 95.2804 75.5709 95.2804H77.243C77.7709 95.2804 78.0349 95.5471 78.0349 96.0771V96.3306C78.0349 96.8672 77.7709 97.1371 77.243 97.1371H75.7242C74.9127 97.1371 74.2152 97.2457 73.6253 97.4597C73.0354 97.6737 72.7421 97.9403 72.7421 98.2597V100.594H83.4288C83.9568 100.594 84.2207 100.857 84.2207 101.387V101.647ZM104.154 106.496C104.161 106.526 104.167 106.575 104.174 106.641C104.18 106.707 104.184 106.756 104.184 106.796C104.184 107.023 104.148 107.201 104.079 107.336C104.011 107.468 103.916 107.573 103.796 107.652C103.509 107.83 103.251 107.922 103.017 107.922C102.838 107.922 102.675 107.873 102.521 107.774C102.372 107.675 102.222 107.514 102.075 107.286L100.093 104.386H90.6908L88.6929 107.293C88.6278 107.418 88.5691 107.507 88.5104 107.556C88.3735 107.695 88.2041 107.764 88.0052 107.764C87.8748 107.764 87.7119 107.724 87.5196 107.649C87.298 107.55 87.1448 107.435 87.06 107.303C86.9721 107.171 86.9297 107.04 86.9297 106.911C86.9297 106.865 86.933 106.829 86.9395 106.796C86.946 106.763 86.9558 106.733 86.9688 106.707L94.0249 95.8104C94.2041 95.5569 94.3964 95.3824 94.6017 95.2869C94.8103 95.1915 95.071 95.1421 95.3904 95.1421C95.6381 95.1619 95.8271 95.1882 95.9542 95.2179C96.3421 95.3298 96.5833 95.524 96.6777 95.8071L104.154 106.496ZM98.7701 102.529L95.3904 97.4927L91.9879 102.529H98.7701ZM121.777 104.574C121.777 105.255 121.663 105.785 121.435 106.164C121.148 106.645 120.64 107 119.906 107.231C119.078 107.494 117.918 107.626 116.426 107.626H108.705C108.183 107.626 107.922 107.359 107.922 106.822V106.572C107.922 106.036 108.183 105.769 108.705 105.769H116.426C117.592 105.769 118.427 105.647 118.938 105.403C119.346 105.212 119.548 104.949 119.548 104.61V103.547C119.548 103.106 119.29 102.79 118.775 102.599C118.26 102.408 117.485 102.312 116.455 102.312H113.505C111.582 102.312 110.155 102.052 109.22 101.532C108.336 101.035 107.893 100.311 107.893 99.3592V98.4342C107.893 97.3939 108.255 96.6269 108.982 96.1396C109.829 95.5668 111.263 95.2804 113.287 95.2804H114.424C114.952 95.2804 115.216 95.5471 115.216 96.0771V96.3306C115.216 96.8672 114.952 97.1371 114.424 97.1371H113.258C112.277 97.1371 111.527 97.2293 111.012 97.4137C110.419 97.6277 110.122 97.9601 110.122 98.421V99.2737C110.122 99.7049 110.383 100.001 110.901 100.166C111.419 100.334 112.273 100.416 113.463 100.416H116.452C118.13 100.416 119.437 100.693 120.372 101.242C121.308 101.795 121.777 102.536 121.777 103.468V104.574ZM141.658 106.826C141.658 107.359 141.391 107.626 140.86 107.626H140.228C139.696 107.626 139.429 107.359 139.429 106.829V102.45H128.635V106.829C128.635 107.359 128.371 107.626 127.843 107.626H127.188C126.666 107.626 126.406 107.359 126.406 106.826V96.0705C126.406 95.5438 126.666 95.2804 127.188 95.2804H127.843C128.371 95.2804 128.635 95.5438 128.635 96.0705V100.594H139.429V96.0705C139.429 95.5438 139.696 95.2804 140.228 95.2804H140.86C141.391 95.2804 141.658 95.5438 141.658 96.0705V106.826ZM148.643 106.826C148.643 107.359 148.379 107.626 147.851 107.626H147.196C146.675 107.626 146.414 107.359 146.414 106.826V96.0705C146.414 95.5438 146.675 95.2804 147.196 95.2804H147.851C148.379 95.2804 148.643 95.5438 148.643 96.0705V106.826ZM168.202 104.314C168.202 105.347 167.772 106.144 166.915 106.701C165.966 107.316 164.506 107.626 162.531 107.626H159.06C157.597 107.626 156.41 107.445 155.508 107.086C154.745 106.786 154.184 106.358 153.829 105.805C153.542 105.364 153.399 104.867 153.399 104.324V98.6317C153.399 97.4301 153.956 96.5512 155.068 95.9915C156.009 95.5174 157.336 95.2804 159.05 95.2804H162.531C164.627 95.2804 166.106 95.5504 166.97 96.0903C167.791 96.6038 168.202 97.4499 168.202 98.6317V104.314ZM165.973 104.261V98.6909C165.973 98.1346 165.692 97.7363 165.132 97.4959C164.571 97.2556 163.721 97.1371 162.583 97.1371H159.037C157.929 97.1371 157.098 97.2523 156.544 97.4828C155.935 97.7396 155.628 98.1412 155.628 98.6909V104.261C155.628 104.811 155.925 105.206 156.518 105.443C157.059 105.66 157.9 105.769 159.037 105.769H162.59C163.688 105.769 164.506 105.664 165.047 105.453C165.663 105.209 165.973 104.811 165.973 104.261ZM188.096 106.315C188.096 106.888 187.95 107.277 187.656 107.484C187.448 107.632 187.099 107.705 186.617 107.705C186.431 107.705 186.206 107.609 185.939 107.418C185.854 107.356 185.74 107.26 185.593 107.132L175.171 98.1807V106.842C175.171 107.375 174.907 107.642 174.379 107.642H173.724C173.202 107.642 172.941 107.375 172.941 106.842V96.5314V96.087C172.941 95.9356 172.993 95.7973 173.095 95.6721C173.196 95.5504 173.336 95.4385 173.515 95.3364C173.596 95.2837 173.691 95.2474 173.792 95.2212C173.893 95.1948 173.994 95.1817 174.089 95.1817C174.395 95.1817 174.734 95.2903 175.112 95.5076C175.233 95.58 175.389 95.6886 175.578 95.8368L185.867 104.673V96.0672C185.867 95.5405 186.131 95.2804 186.659 95.2804H187.304C187.832 95.2804 188.096 95.5438 188.096 96.0705V106.315ZM227.044 96.64L221.021 102.483V106.829C221.021 107.359 220.761 107.626 220.236 107.626H219.587C219.056 107.626 218.792 107.362 218.792 106.839V102.483L212.75 96.64C212.515 96.4063 212.398 96.1758 212.398 95.9454C212.398 95.7511 212.479 95.5931 212.642 95.4681C212.805 95.3429 213.027 95.2804 213.307 95.2804H213.995C214.07 95.2804 214.167 95.3035 214.281 95.3462C214.396 95.389 214.48 95.4385 214.539 95.4976L219.894 100.676L225.255 95.4976C225.307 95.4483 225.389 95.399 225.506 95.3495C225.62 95.3034 225.718 95.2804 225.799 95.2804H226.497C226.771 95.2804 226.989 95.3429 227.152 95.4681C227.315 95.5931 227.396 95.7511 227.396 95.9454C227.396 96.1758 227.279 96.4063 227.044 96.64ZM244.191 104.314C244.191 105.347 243.761 106.144 242.904 106.701C241.955 107.316 240.495 107.626 238.52 107.626H235.049C233.586 107.626 232.4 107.445 231.497 107.086C230.734 106.786 230.174 106.358 229.818 105.805C229.532 105.364 229.388 104.867 229.388 104.324V98.6317C229.388 97.4301 229.946 96.5512 231.057 95.9915C231.999 95.5174 233.325 95.2804 235.04 95.2804H238.52C240.616 95.2804 242.096 95.5504 242.959 96.0903C243.781 96.6038 244.191 97.4499 244.191 98.6317V104.314ZM241.962 104.261V98.6909C241.962 98.1346 241.682 97.7363 241.121 97.4959C240.561 97.2556 239.71 97.1371 238.572 97.1371H235.027C233.918 97.1371 233.087 97.2523 232.533 97.4828C231.924 97.7396 231.617 98.1412 231.617 98.6909V104.261C231.617 104.811 231.914 105.206 232.507 105.443C233.048 105.66 233.889 105.769 235.027 105.769H238.579C239.677 105.769 240.495 105.664 241.036 105.453C241.652 105.209 241.962 104.811 241.962 104.261ZM264.183 104.149C264.183 104.745 264.043 105.268 263.763 105.719C263.408 106.296 262.828 106.743 262.026 107.056C261.064 107.435 259.79 107.626 258.206 107.626H255.074C253.363 107.626 252.046 107.468 251.131 107.155C250.322 106.878 249.758 106.457 249.439 105.891C249.204 105.476 249.087 104.893 249.087 104.149V96.0705C249.087 95.5438 249.348 95.2804 249.869 95.2804H250.524C251.052 95.2804 251.316 95.5438 251.316 96.0705V103.998C251.316 104.659 251.632 105.124 252.261 105.394C252.842 105.644 253.787 105.769 255.097 105.769H258.174C259.503 105.769 260.448 105.65 261.009 105.413C261.638 105.143 261.954 104.676 261.954 104.008V96.0705C261.954 95.5438 262.218 95.2804 262.749 95.2804H263.398C263.923 95.2804 264.183 95.5438 264.183 96.0705V104.149Z" fill="black"/>
<path d="M209.055 106.826C209.055 107.359 208.791 107.626 208.267 107.626H207.331C206.813 107.626 206.552 107.359 206.552 106.826V104.485H193.62C193.193 104.485 192.89 104.357 192.711 104.1C192.564 103.896 192.492 103.593 192.492 103.195V96.0808C192.492 95.5475 192.753 95.2808 193.271 95.2808H194.217C194.735 95.2808 194.996 95.5475 194.996 96.0808V102.352H206.552V96.0808C206.552 95.5475 206.813 95.2808 207.331 95.2808H208.267C208.791 95.2808 209.055 95.5475 209.055 96.0808V106.826Z" fill="#16F22C"/>
<path d="M134.132 119.543H139.853C139.791 120.996 139.322 122.172 138.451 123.074C137.58 123.975 136.474 124.427 135.139 124.427C134.443 124.427 133.804 124.292 133.218 124.023C132.633 123.755 132.108 123.357 131.641 122.829C131.248 122.391 130.95 121.891 130.746 121.33C130.543 120.769 130.442 120.171 130.442 119.532C130.442 118.879 130.565 118.262 130.809 117.677C131.055 117.094 131.414 116.568 131.889 116.099C132.337 115.647 132.838 115.309 133.393 115.086C133.949 114.861 134.564 114.75 135.241 114.75C136.176 114.75 136.995 114.97 137.699 115.411C138.404 115.852 138.937 116.479 139.296 117.29H137.65C137.345 116.895 136.98 116.599 136.556 116.398C136.131 116.199 135.658 116.099 135.137 116.099C134.7 116.099 134.283 116.182 133.89 116.348C133.495 116.513 133.145 116.756 132.84 117.07C132.522 117.397 132.274 117.779 132.097 118.214C131.917 118.65 131.829 119.093 131.829 119.545C131.829 120.029 131.909 120.488 132.071 120.922C132.231 121.354 132.462 121.727 132.762 122.044C133.08 122.375 133.447 122.633 133.862 122.816C134.277 123 134.7 123.091 135.132 123.091C135.837 123.091 136.457 122.904 136.995 122.526C137.533 122.148 137.976 121.59 138.324 120.852H134.132V119.543ZM147.598 119.545C147.598 120.029 147.678 120.488 147.838 120.922C148 121.354 148.229 121.727 148.529 122.044C148.847 122.375 149.212 122.633 149.625 122.816C150.04 123 150.461 123.091 150.891 123.091C151.846 123.091 152.643 122.749 153.285 122.066C153.927 121.382 154.248 120.533 154.248 119.519C154.248 119.089 154.171 118.678 154.017 118.288C153.864 117.897 153.639 117.539 153.343 117.212C152.993 116.832 152.617 116.551 152.218 116.369C151.82 116.188 151.377 116.099 150.891 116.099C150.457 116.099 150.044 116.182 149.651 116.348C149.257 116.513 148.91 116.756 148.605 117.07C148.29 117.397 148.041 117.779 147.864 118.214C147.687 118.65 147.598 119.093 147.598 119.545ZM146.211 119.532C146.211 118.879 146.334 118.262 146.578 117.677C146.822 117.094 147.181 116.568 147.654 116.099C148.102 115.656 148.598 115.32 149.145 115.093C149.692 114.864 150.279 114.75 150.908 114.75C151.552 114.75 152.15 114.864 152.701 115.093C153.252 115.32 153.756 115.66 154.212 116.112C154.681 116.577 155.033 117.096 155.268 117.67C155.504 118.246 155.623 118.866 155.623 119.532C155.623 120.191 155.521 120.8 155.318 121.356C155.117 121.913 154.812 122.41 154.408 122.856C153.931 123.375 153.397 123.766 152.809 124.03C152.22 124.294 151.582 124.427 150.895 124.427C150.202 124.427 149.564 124.292 148.981 124.023C148.395 123.755 147.873 123.357 147.408 122.829C147.015 122.391 146.717 121.891 146.516 121.33C146.313 120.769 146.211 120.171 146.211 119.532ZM172.743 124.244H167.96V114.933H172.743V116.177H169.295V118.953H172.743V120.171H169.295V122.96H172.743V124.244ZM188.331 121.913C187.931 122.725 187.376 123.347 186.669 123.779C185.963 124.211 185.144 124.427 184.211 124.427C183.519 124.427 182.882 124.292 182.296 124.023C181.713 123.755 181.188 123.357 180.726 122.829C180.332 122.391 180.034 121.891 179.833 121.33C179.63 120.769 179.529 120.171 179.529 119.532C179.529 118.884 179.652 118.268 179.896 117.688C180.14 117.105 180.499 116.577 180.972 116.099C181.419 115.656 181.916 115.32 182.463 115.093C183.007 114.864 183.595 114.75 184.224 114.75C185.17 114.75 186 114.975 186.715 115.427C187.43 115.878 187.968 116.518 188.331 117.343H186.762C186.466 116.93 186.103 116.62 185.673 116.411C185.241 116.204 184.755 116.099 184.209 116.099C183.774 116.099 183.362 116.182 182.968 116.348C182.575 116.513 182.227 116.756 181.923 117.07C181.607 117.397 181.359 117.779 181.182 118.214C181.004 118.65 180.916 119.093 180.916 119.545C180.916 120.029 180.996 120.488 181.156 120.922C181.318 121.354 181.547 121.727 181.847 122.044C182.162 122.375 182.528 122.633 182.942 122.816C183.355 123 183.779 123.091 184.209 123.091C184.736 123.091 185.213 122.991 185.637 122.788C186.06 122.587 186.41 122.295 186.685 121.913H188.331ZM196.229 119.545C196.229 120.029 196.309 120.488 196.469 120.922C196.631 121.354 196.86 121.727 197.16 122.044C197.478 122.375 197.843 122.633 198.256 122.816C198.67 123 199.092 123.091 199.522 123.091C200.477 123.091 201.274 122.749 201.916 122.066C202.557 121.382 202.879 120.533 202.879 119.519C202.879 119.089 202.802 118.678 202.648 118.288C202.495 117.897 202.27 117.539 201.974 117.212C201.624 116.832 201.248 116.551 200.848 116.369C200.451 116.188 200.008 116.099 199.522 116.099C199.088 116.099 198.675 116.182 198.282 116.348C197.888 116.513 197.541 116.756 197.236 117.07C196.92 117.397 196.672 117.779 196.495 118.214C196.318 118.65 196.229 119.093 196.229 119.545ZM194.842 119.532C194.842 118.879 194.965 118.262 195.209 117.677C195.453 117.094 195.812 116.568 196.285 116.099C196.732 115.656 197.229 115.32 197.776 115.093C198.323 114.864 198.91 114.75 199.539 114.75C200.183 114.75 200.781 114.864 201.332 115.093C201.883 115.32 202.387 115.66 202.843 116.112C203.312 116.577 203.664 117.096 203.899 117.67C204.135 118.246 204.254 118.866 204.254 119.532C204.254 120.191 204.152 120.8 203.949 121.356C203.748 121.913 203.443 122.41 203.039 122.856C202.562 123.375 202.028 123.766 201.44 124.03C200.851 124.294 200.213 124.427 199.526 124.427C198.833 124.427 198.195 124.292 197.612 124.023C197.026 123.755 196.503 123.357 196.039 122.829C195.646 122.391 195.348 121.891 195.147 121.33C194.943 120.769 194.842 120.171 194.842 119.532Z" fill="#16F22C"/>
<path d="M160.253 37.217C161.056 37.5964 161.403 38.562 161.028 39.3735C160.652 40.185 159.696 40.5353 158.893 40.156C158.353 39.8995 157.783 39.7006 157.191 39.5676C156.889 39.4997 156.575 39.449 156.249 39.4167L155.486 39.4636C153.125 39.6086 151.011 40.6535 149.497 42.2806C148.01 43.8778 147.1 46.0453 147.1 48.4815C147.1 49.434 147.279 50.4609 147.603 51.4997C147.865 52.34 148.217 53.18 148.643 53.9899H145.087C144.874 53.4838 144.688 52.9745 144.529 52.4667C144.108 51.1153 143.876 49.7605 143.876 48.4815C143.876 45.1859 145.121 42.2389 147.154 40.0541C148.932 38.1441 151.313 36.8235 153.992 36.3696C154.586 33.4216 156.109 30.818 158.237 28.8857C160.529 26.8051 163.519 25.4968 166.807 25.3665C166.877 25.3571 166.949 25.3521 167.022 25.3521C167.126 25.3521 167.23 25.3534 167.333 25.3557L167.35 25.3556C170.851 25.3556 174.046 26.6911 176.463 28.8857C178.591 30.818 180.114 33.4215 180.708 36.3696C183.387 36.8235 185.768 38.1441 187.546 40.0541C189.579 42.2388 190.824 45.186 190.824 48.4815C190.824 49.7262 190.654 51.0681 190.331 52.4234C190.206 52.9471 190.058 53.4709 189.888 53.9899H186.469C186.774 53.2305 187.022 52.4502 187.207 51.6727C187.464 50.5943 187.6 49.5083 187.6 48.4815C187.6 46.0453 186.69 43.8777 185.203 42.2806C183.975 40.9617 182.354 40.0254 180.526 39.6407C180.504 40.2149 180.453 40.7748 180.373 41.3202C180.26 42.0945 180.093 42.8251 179.878 43.5117C179.61 44.3688 178.705 44.8445 177.857 44.574C177.008 44.3035 176.537 43.3892 176.805 42.532C176.972 41.9986 177.101 41.4375 177.187 40.8496C177.27 40.2749 177.314 39.6602 177.314 39.0049C177.314 36.1341 176.162 33.5349 174.3 31.6538C172.499 29.8347 170.033 28.6868 167.303 28.6129C164.644 28.6248 162.222 29.6402 160.391 31.3029C158.94 32.6203 157.858 34.3406 157.318 36.2868C157.507 36.3198 157.696 36.3574 157.884 36.3996C158.713 36.586 159.506 36.8623 160.253 37.217Z" fill="black"/>
</svg>
