<?xml version="1.0" encoding="UTF-8"?>
<!DOCTYPE svg PUBLIC "-//W3C//DTD SVG 1.1//EN" "http://www.w3.org/Graphics/SVG/1.1/DTD/svg11.dtd">
<!-- Creator: CorelDRAW 2020 (64-Bit) -->
<svg xmlns="http://www.w3.org/2000/svg" xml:space="preserve" width="180px" height="80px" version="1.1" style="shape-rendering:geometricPrecision; text-rendering:geometricPrecision; image-rendering:optimizeQuality; fill-rule:evenodd; clip-rule:evenodd"
viewBox="0 0 26458.32 15874.98"
 xmlns:xlink="http://www.w3.org/1999/xlink"
 xmlns:xodm="http://www.corel.com/coreldraw/odm/2003">
 <defs>
  <style type="text/css">
   <![CDATA[
    .fil0 {fill:#65C947;fill-rule:nonzero}
    .fil2 {fill:#65C947;fill-rule:nonzero}
    .fil1 {fill:black;fill-rule:nonzero}
   ]]>
  </style>
 </defs>
 <g id="Warstwa_x0020_1">
  <metadata id="CorelCorpID_0Corel-Layer"/>
  <path class="fil0" d="M13087.92 7457.35l-17.48 0 -910.15 0c-374.99,0 -715.78,-153.3 -962.74,-400.26 -246.96,-246.95 -400.26,-587.76 -400.26,-962.74l0 -273.75 1227.65 0c169.47,0 331.96,31.32 481.96,88.44 21.7,-187.28 76.14,-365.24 157.5,-527.96 111.19,-222.41 272.85,-415.17 469.91,-563.19 58.61,-43.95 137.81,-41.06 192.74,2.27 195.7,147.72 356.3,339.63 466.92,560.91 81.36,162.73 135.8,340.68 157.51,527.97 150,-57.12 312.48,-88.44 481.95,-88.44l1227.66 0 0 273.75c0,374.98 -153.3,715.79 -400.26,962.74 -246.96,246.96 -587.75,400.26 -962.74,400.26l-887.06 0c41.98,193.38 139.09,366.2 274.04,501.16 183.58,183.58 437.23,297.14 717.41,297.14 87.67,0 158.75,71.08 158.75,158.75 0,87.67 -71.08,158.75 -158.75,158.75 -367.82,0 -700.83,-149.1 -941.89,-390.16 -192.79,-192.8 -326.75,-444.43 -372.67,-725.64zm-583.31 -1201.8c-143.91,-74.98 -307.09,-117.45 -479.67,-117.45l-909.22 0c11.28,270.07 126.42,514.63 306.31,694.51 189.56,189.56 450.92,307.24 738.26,307.24l729.04 0c-88.39,-101.32 -164.2,-213.96 -224.94,-335.45 -84.37,-168.76 -139.8,-353.9 -159.78,-548.85zm1064.45 884.3l729.03 0c287.34,0 548.7,-117.68 738.26,-307.24 179.89,-179.88 295.03,-424.44 306.31,-694.51l-909.23 0c-172.58,0 -335.76,42.47 -479.67,117.45 -19.98,194.95 -75.41,380.09 -159.79,548.86 -60.73,121.48 -136.52,234.11 -224.91,335.44zm-57.85 -1617.4c-70.57,-141.16 -166.59,-267.46 -282.03,-372.9 -115.43,105.44 -211.45,231.75 -282.02,372.91 -85.34,170.68 -133.36,364.32 -133.36,570.28 0,205.98 48.02,399.61 133.35,570.28 70.58,141.17 166.59,267.47 282.03,372.91 115.44,-105.44 211.46,-231.74 282.03,-372.9 85.34,-170.69 133.36,-364.32 133.36,-570.29 0,-205.97 -48.02,-399.6 -133.36,-570.29z"/>
  <g id="_2161026906992">
   <path class="fil1" d="M5043.76 10466.39c0,52.31 -25.99,78.3 -77.98,78.3l-1052.29 0 0 426.82c0,51.67 -26,77.67 -77.99,77.67l-64.5 0c-51.35,0 -77.02,-26 -77.02,-77.99l0 -844.65c0,-71.57 41.4,-134.15 124.19,-187.74 94.35,-61.94 219.19,-93.07 373.87,-93.07l164.64 0c51.98,0 77.98,26 77.98,77.67l0 24.71c0,52.31 -26,78.62 -77.98,78.62l-149.55 0c-79.91,0 -148.59,10.59 -206.67,31.45 -58.09,20.86 -86.97,46.85 -86.97,77.98l0 227.53 1052.29 0c51.99,0 77.98,25.68 77.98,77.35l0 25.35zm1962.8 472.71c0.64,2.89 1.28,7.7 1.93,14.12 0.64,6.42 0.96,11.23 0.96,15.09 0,22.14 -3.53,39.47 -10.27,52.63 -6.74,12.83 -16.05,23.1 -27.92,30.8 -28.24,17.33 -53.59,26.32 -76.7,26.32 -17.65,0 -33.7,-4.81 -48.78,-14.44 -14.76,-9.63 -29.52,-25.35 -43.96,-47.5l-195.12 -282.73 -925.85 0 -196.73 283.37c-6.41,12.2 -12.19,20.86 -17.97,25.68 -13.48,13.48 -30.16,20.22 -49.74,20.22 -12.84,0 -28.88,-3.86 -47.82,-11.24 -21.82,-9.62 -36.9,-20.86 -45.25,-33.69 -8.66,-12.84 -12.83,-25.68 -12.83,-38.19 0,-4.5 0.32,-8.03 0.96,-11.23 0.64,-3.21 1.61,-6.1 2.89,-8.67l694.79 -1062.24c17.65,-24.71 36.58,-41.72 56.8,-51.03 20.54,-9.3 46.21,-14.12 77.66,-14.12 24.39,1.93 43,4.5 55.52,7.39 38.19,10.91 61.94,29.84 71.24,57.44l736.19 1042.02zm-530.16 -386.71l-332.79 -491 -335.04 491 667.83 0zm2265.43 199.3c0,66.43 -11.23,118.09 -33.7,155 -28.24,46.85 -78.3,81.51 -150.51,103.98 -81.51,25.67 -195.76,38.51 -342.74,38.51l-760.26 0c-51.34,0 -77.02,-26 -77.02,-78.31l0 -24.39c0,-52.31 25.68,-78.3 77.02,-78.3l760.26 0c114.89,0 197.04,-11.88 247.43,-35.62 40.11,-18.62 60.01,-44.29 60.01,-77.34l0 -103.66c0,-43 -25.35,-73.81 -76.06,-92.43 -50.7,-18.61 -127.08,-27.92 -228.49,-27.92l-290.43 0c-189.34,0 -329.91,-25.35 -422.01,-76.05 -86.97,-48.46 -130.61,-119.06 -130.61,-211.81l0 -90.18c0,-101.41 35.62,-176.18 107.18,-223.68 83.44,-55.84 224.65,-83.76 423.94,-83.76l112 0c51.99,0 77.98,26 77.98,77.67l0 24.71c0,52.31 -25.99,78.62 -77.98,78.62l-114.89 0c-96.6,0 -170.41,8.99 -221.12,26.96 -58.4,20.86 -87.61,53.27 -87.61,98.2l0 83.12c0,42.04 25.68,70.92 76.7,86.97 51.03,16.36 135.11,24.39 252.25,24.39l294.28 0c165.27,0 293.96,26.95 386.06,80.55 92.11,53.91 138.32,126.12 138.32,216.94l0 107.83zm1957.66 219.5c0,51.99 -26.32,77.99 -78.63,77.99l-62.26 0c-52.31,0 -78.62,-26 -78.62,-77.67l0 -426.82 -1062.88 0 0 426.82c0,51.67 -26,77.67 -77.99,77.67l-64.5 0c-51.35,0 -77.02,-26 -77.02,-77.99l0 -1048.44c0,-51.34 25.67,-77.02 77.02,-77.02l64.5 0c51.99,0 77.99,25.68 77.99,77.02l0 440.94 1062.88 0 0 -440.94c0,-51.34 26.31,-77.02 78.62,-77.02l62.26 0c52.31,0 78.63,25.68 78.63,77.02l0 1048.44zm687.79 0c0,51.99 -26,77.99 -77.99,77.99l-64.5 0c-51.35,0 -77.02,-26 -77.02,-77.99l0 -1048.44c0,-51.34 25.67,-77.02 77.02,-77.02l64.5 0c51.99,0 77.99,25.68 77.99,77.02l0 1048.44zm1925.89 -244.86c0,100.77 -42.36,178.43 -126.76,232.67 -93.39,60.01 -237.16,90.18 -431.64,90.18l-341.78 0c-144.09,0 -260.9,-17.65 -349.8,-52.63 -75.09,-29.21 -130.29,-70.93 -165.27,-124.84 -28.24,-43 -42.36,-91.46 -42.36,-144.41l0 -554.87c0,-117.14 54.88,-202.82 164.31,-257.38 92.74,-46.21 223.36,-69.32 392.16,-69.32l342.74 0c206.35,0 352.05,26.32 437.09,78.95 80.87,50.06 121.31,132.54 121.31,247.75l0 553.9zm-219.51 -5.13l0 -543c0,-54.23 -27.6,-93.06 -82.79,-116.49 -55.2,-23.43 -138.96,-34.98 -250.96,-34.98l-349.16 0c-109.11,0 -190.95,11.23 -245.5,33.7 -60.02,25.03 -90.18,64.18 -90.18,117.77l0 543c0,53.59 29.2,92.1 87.61,115.21 53.27,21.18 136.07,31.77 248.07,31.77l349.8 0c108.15,0 188.7,-10.27 241.97,-30.81 60.65,-23.75 91.14,-62.58 91.14,-116.17zm2178.46 200.25c0,55.84 -14.44,93.71 -43.32,113.93 -20.54,14.44 -54.88,21.5 -102.38,21.5 -18.29,0 -40.43,-9.31 -66.75,-27.92 -8.34,-6.1 -19.57,-15.41 -34.02,-27.92l-1026.29 -872.58 0 844.34c0,51.99 -26,77.98 -77.99,77.98l-64.5 0c-51.35,0 -77.02,-25.99 -77.02,-77.98l0 -1005.12 0 -43.32c0,-14.76 5.13,-28.24 15.08,-40.44 9.95,-11.87 23.75,-22.78 41.4,-32.73 8.02,-5.14 17.33,-8.67 27.28,-11.23 9.95,-2.57 19.9,-3.85 29.2,-3.85 30.17,0 63.54,10.59 100.77,31.77 11.87,7.06 27.28,17.65 45.89,32.09l1013.14 861.34 0 -838.88c0,-51.34 26,-76.7 77.98,-76.7l63.55 0c51.99,0 77.98,25.68 77.98,77.02l0 998.7zm3835.1 -943.18l-593.06 569.63 0 423.61c0,51.67 -25.67,77.67 -77.34,77.67l-63.86 0c-52.31,0 -78.3,-25.68 -78.3,-76.7l0 -424.58 -594.99 -569.63c-23.1,-22.78 -34.66,-45.25 -34.66,-67.71 0,-18.94 8.03,-34.34 24.07,-46.53 16.05,-12.2 37.87,-18.3 65.47,-18.3l67.71 0c7.39,0 17.01,2.25 28.24,6.42 11.24,4.17 19.58,8.99 25.36,14.76l527.27 504.81 527.91 -504.81c5.13,-4.81 13.15,-9.62 24.71,-14.44 11.23,-4.49 20.86,-6.74 28.88,-6.74l68.68 0c26.95,0 48.46,6.1 64.5,18.3 16.05,12.19 24.07,27.59 24.07,46.53 0,22.46 -11.55,44.93 -34.66,67.71zm1688.41 748.06c0,100.77 -42.36,178.43 -126.76,232.67 -93.39,60.01 -237.16,90.18 -431.64,90.18l-341.78 0c-144.09,0 -260.9,-17.65 -349.8,-52.63 -75.09,-29.21 -130.29,-70.93 -165.27,-124.84 -28.24,-43 -42.36,-91.46 -42.36,-144.41l0 -554.87c0,-117.14 54.88,-202.82 164.31,-257.38 92.74,-46.21 223.36,-69.32 392.16,-69.32l342.74 0c206.35,0 352.05,26.32 437.09,78.95 80.87,50.06 121.31,132.54 121.31,247.75l0 553.9zm-219.51 -5.13l0 -543c0,-54.23 -27.6,-93.06 -82.79,-116.49 -55.2,-23.43 -138.96,-34.98 -250.96,-34.98l-349.16 0c-109.11,0 -190.95,11.23 -245.5,33.7 -60.02,25.03 -90.18,64.18 -90.18,117.77l0 543c0,53.59 29.2,92.1 87.61,115.21 53.27,21.18 136.07,31.77 248.07,31.77l349.8 0c108.15,0 188.7,-10.27 241.97,-30.81 60.65,-23.75 91.14,-62.58 91.14,-116.17zm2188.09 -10.91c0,58.08 -13.8,109.11 -41.4,153.07 -34.98,56.17 -92.11,99.81 -171.05,130.3 -94.67,36.9 -220.15,55.52 -376.12,55.52l-308.4 0c-168.48,0 -298.13,-15.41 -388.31,-45.89 -79.59,-26.96 -135.11,-68.04 -166.56,-123.24 -23.1,-40.43 -34.66,-97.24 -34.66,-169.76l0 -787.54c0,-51.34 25.68,-77.02 77.02,-77.02l64.51 0c51.99,0 77.98,25.68 77.98,77.02l0 772.77c0,64.51 31.13,109.76 93.07,136.07 57.12,24.39 150.19,36.59 279.2,36.59l302.94 0c130.94,0 224,-11.55 279.2,-34.66 61.94,-26.32 93.07,-71.89 93.07,-137.03l0 -773.74c0,-51.34 25.99,-77.02 78.3,-77.02l63.87 0c51.66,0 77.34,25.68 77.34,77.02l0 787.54z"/>
   <path class="fil2" d="M17336.01 10971.19c0,51.99 -26,77.99 -77.67,77.99l-92.1 0c-51.02,0 -76.7,-26 -76.7,-77.99l0 -228.17 -1273.4 0c-42.04,0 -71.89,-12.52 -89.54,-37.55 -14.44,-19.89 -21.5,-49.42 -21.5,-88.25l0 -693.5c0,-51.99 25.67,-77.99 76.7,-77.99l93.07 0c51.02,0 76.7,26 76.7,77.99l0 611.35 1137.97 0 0 -611.35c0,-51.99 25.68,-77.99 76.7,-77.99l92.1 0c51.67,0 77.67,26 77.67,77.99l0 1047.47z"/>
  </g>
  <path class="fil2" d="M9958.49 12210.86l563.36 0c-6.17,141.69 -52.34,256.36 -138.08,344.23 -85.73,87.86 -194.66,131.9 -326.14,131.9 -68.51,0 -131.48,-13.19 -189.13,-39.36 -57.66,-26.17 -109.36,-64.89 -155.31,-116.37 -38.72,-42.76 -68.08,-91.48 -88.08,-146.16 -20,-54.68 -30,-112.97 -30,-175.3 0,-63.62 12.13,-123.82 36.17,-180.84 24.26,-56.8 59.57,-108.08 106.38,-153.82 44.03,-44.04 93.39,-77.01 148.07,-98.71 54.68,-21.92 115.31,-32.77 181.9,-32.77 92.12,0 172.75,21.49 242.11,64.47 69.35,42.97 121.9,104.03 157.22,183.17l-162.12 0c-29.99,-38.5 -65.95,-67.44 -107.65,-87.01 -41.91,-19.36 -88.5,-29.15 -139.77,-29.15 -42.98,0 -84.04,8.09 -122.76,24.26 -38.93,16.17 -73.4,39.78 -103.39,70.42 -31.28,31.91 -55.74,69.14 -73.19,111.48 -17.66,42.55 -26.38,85.73 -26.38,129.77 0,47.23 7.87,91.91 23.83,134.25 15.74,42.12 38.5,78.5 68.08,109.35 31.27,32.34 67.44,57.44 108.29,75.31 40.84,17.87 82.54,26.81 125.09,26.81 69.36,0 130.42,-18.3 183.39,-55.1 52.97,-36.81 96.59,-91.27 130.84,-163.18l-412.73 0 0 -127.65zm1325.96 0.21c0,47.23 7.87,91.91 23.61,134.25 15.96,42.12 38.51,78.5 68.08,109.35 31.28,32.34 67.23,57.44 107.87,75.31 40.84,17.87 82.33,26.81 124.67,26.81 94.03,0 172.54,-33.4 235.72,-99.99 63.19,-66.59 94.89,-149.35 94.89,-248.28 0,-41.91 -7.66,-81.91 -22.77,-119.99 -15.1,-38.08 -37.23,-72.97 -66.37,-104.89 -34.47,-37.01 -71.49,-64.46 -110.84,-82.12 -39.15,-17.65 -82.76,-26.38 -130.63,-26.38 -42.76,0 -83.4,8.09 -122.12,24.26 -38.72,16.17 -72.97,39.78 -102.97,70.42 -31.06,31.91 -55.53,69.14 -72.97,111.48 -17.45,42.55 -26.17,85.73 -26.17,129.77zm-136.59 -1.27c0,-63.62 12.13,-123.82 36.17,-180.84 24.04,-56.8 59.36,-108.08 105.95,-153.82 44.04,-43.18 92.97,-75.95 146.8,-98.07 53.82,-22.34 111.69,-33.41 173.6,-33.41 63.4,0 122.33,11.07 176.58,33.41 54.25,22.12 103.82,55.31 148.71,99.35 46.17,45.32 80.85,95.95 104.04,151.9 23.19,56.17 34.89,116.59 34.89,181.48 0,64.25 -10,123.6 -30,177.85 -19.79,54.25 -49.78,102.76 -89.57,146.16 -47.02,50.64 -99.56,88.72 -157.43,114.46 -58.08,25.74 -120.84,38.72 -188.5,38.72 -68.29,0 -131.05,-13.19 -188.49,-39.36 -57.66,-26.17 -109.14,-64.89 -154.88,-116.37 -38.72,-42.76 -68.08,-91.48 -87.87,-146.16 -20,-54.68 -30,-112.97 -30,-175.3zm2612.56 459.32l-471.03 0 0 -907.58 471.03 0 0 121.26 -339.55 0 0 270.62 339.55 0 0 118.71 -339.55 0 0 271.89 339.55 0 0 125.1zm1534.88 -227.22c-39.36,79.15 -94.03,139.78 -163.6,181.9 -69.57,42.13 -150.2,63.19 -242.11,63.19 -68.08,0 -130.84,-13.19 -188.49,-39.36 -57.45,-26.17 -109.14,-64.89 -154.67,-116.37 -38.72,-42.76 -68.08,-91.48 -87.87,-146.16 -20,-54.68 -30,-112.97 -30,-175.3 0,-63.19 12.13,-123.18 36.17,-179.78 24.04,-56.8 59.36,-108.28 105.95,-154.88 44.04,-43.18 92.97,-75.95 146.8,-98.07 53.61,-22.34 111.48,-33.41 173.39,-33.41 93.18,0 174.88,21.92 245.3,65.96 70.42,44.04 123.39,106.37 159.13,186.79l-154.45 0c-29.15,-40.21 -64.89,-70.42 -107.23,-90.84 -42.55,-20.21 -90.42,-30.43 -144.24,-30.43 -42.76,0 -83.4,8.09 -122.12,24.26 -38.72,16.17 -72.97,39.78 -102.97,70.42 -31.06,31.91 -55.53,69.14 -72.97,111.48 -17.45,42.55 -26.17,85.73 -26.17,129.77 0,47.23 7.87,91.91 23.61,134.25 15.96,42.12 38.51,78.5 68.08,109.35 31.06,32.34 67.02,57.44 107.87,75.31 40.63,17.87 82.33,26.81 124.67,26.81 51.91,0 98.93,-9.79 140.62,-29.57 41.7,-19.58 76.17,-48.08 103.19,-85.32l162.11 0zm777.71 -230.83c0,47.23 7.87,91.91 23.61,134.25 15.96,42.12 38.51,78.5 68.08,109.35 31.28,32.34 67.23,57.44 107.87,75.31 40.84,17.87 82.33,26.81 124.67,26.81 94.03,0 172.54,-33.4 235.72,-99.99 63.19,-66.59 94.89,-149.35 94.89,-248.28 0,-41.91 -7.66,-81.91 -22.77,-119.99 -15.1,-38.08 -37.23,-72.97 -66.37,-104.89 -34.47,-37.01 -71.49,-64.46 -110.84,-82.12 -39.15,-17.65 -82.76,-26.38 -130.63,-26.38 -42.76,0 -83.4,8.09 -122.12,24.26 -38.72,16.17 -72.97,39.78 -102.97,70.42 -31.06,31.91 -55.53,69.14 -72.97,111.48 -17.45,42.55 -26.17,85.73 -26.17,129.77zm-136.59 -1.27c0,-63.62 12.13,-123.82 36.17,-180.84 24.04,-56.8 59.36,-108.08 105.95,-153.82 44.04,-43.18 92.97,-75.95 146.8,-98.07 53.82,-22.34 111.69,-33.41 173.6,-33.41 63.4,0 122.33,11.07 176.58,33.41 54.25,22.12 103.82,55.31 148.71,99.35 46.17,45.32 80.85,95.95 104.04,151.9 23.19,56.17 34.89,116.59 34.89,181.48 0,64.25 -10,123.6 -30,177.85 -19.79,54.25 -49.78,102.76 -89.57,146.16 -47.02,50.64 -99.56,88.72 -157.43,114.46 -58.08,25.74 -120.84,38.72 -188.5,38.72 -68.29,0 -131.05,-13.19 -188.49,-39.36 -57.66,-26.17 -109.14,-64.89 -154.88,-116.37 -38.72,-42.76 -68.08,-91.48 -87.87,-146.16 -20,-54.68 -30,-112.97 -30,-175.3z"/>
  <path class="fil1" d="M12530.35 4185.53c79.11,36.98 113.26,131.11 76.28,210.22 -36.98,79.11 -131.11,113.26 -210.22,76.28 -53.15,-25 -109.27,-44.39 -167.55,-57.36 -29.77,-6.62 -60.71,-11.56 -92.73,-14.71l-75.12 4.57c-232.55,14.14 -440.65,116 -589.77,274.61 -146.38,155.7 -235.98,367 -235.98,604.48 0,92.86 17.56,192.96 49.46,294.23 25.81,81.91 60.49,163.8 102.46,242.75l-350.2 0c-20.9,-49.34 -39.28,-98.99 -54.88,-148.49 -41.5,-131.74 -64.34,-263.81 -64.34,-388.49 0,-321.26 122.56,-608.54 322.8,-821.52 175.07,-186.2 409.54,-314.93 673.29,-359.18 58.54,-287.38 208.49,-541.18 418.05,-729.55 225.63,-202.82 520.1,-330.36 843.81,-343.06 6.93,-0.92 14,-1.41 21.19,-1.41 10.24,0 20.44,0.13 30.62,0.36l1.67 -0.01c344.7,0 659.29,130.18 897.29,344.12 209.56,188.37 359.51,442.16 418.05,729.55 263.75,44.25 498.21,172.98 673.27,359.18 200.24,212.97 322.8,500.27 322.8,821.52 0,121.34 -16.78,252.15 -48.57,384.27 -12.29,51.05 -26.85,102.11 -43.57,152.71l-336.65 0c30.01,-74.03 54.4,-150.1 72.64,-225.89 25.3,-105.13 38.65,-210.99 38.65,-311.09 0,-237.48 -89.59,-448.79 -235.98,-604.48 -120.87,-128.57 -280.51,-219.84 -460.5,-257.34 -2.16,55.97 -7.26,110.55 -15.08,163.72 -11.1,75.48 -27.54,146.7 -48.74,213.63 -26.37,83.56 -115.5,129.93 -199.06,103.56 -83.56,-26.37 -129.93,-115.5 -103.56,-199.06 16.47,-52 29.15,-106.7 37.58,-164.01 8.23,-56.02 12.56,-115.94 12.56,-179.82 0,-279.86 -113.43,-533.23 -296.81,-716.61 -177.33,-177.33 -420.09,-289.23 -688.98,-296.43 -261.79,1.16 -500.24,100.14 -680.55,262.23 -142.88,128.42 -249.49,296.12 -302.66,485.84 18.65,3.22 37.25,6.88 55.76,11 81.63,18.17 159.74,45.1 233.27,79.68z"/>
 </g>
</svg>
