<?xml version="1.0" standalone="no"?>
<!DOCTYPE svg PUBLIC "-//W3C//DTD SVG 20010904//EN"
 "http://www.w3.org/TR/2001/REC-SVG-20010904/DTD/svg10.dtd">
<svg version="1.0" xmlns="http://www.w3.org/2000/svg"
 width="64.000000pt" height="64.000000pt" viewBox="0 0 64.000000 64.000000"
 preserveAspectRatio="xMidYMid meet">

<g transform="translate(0.000000,64.000000) scale(0.100000,-0.100000)"
fill="#000000" stroke="none">
<path d="M95 581 c-113 -70 -125 -203 -28 -327 42 -53 232 -214 253 -214 21 0
211 161 253 214 64 82 81 162 52 234 -31 73 -86 112 -160 112 -52 0 -77 -10
-117 -48 l-28 -26 -27 26 c-16 14 -38 31 -50 37 -34 17 -114 13 -148 -8z m114
-21 c19 -5 52 -26 73 -46 l37 -37 44 40 c55 50 103 62 154 36 49 -24 74 -61
80 -117 9 -79 -15 -123 -130 -232 -56 -53 -112 -103 -124 -111 -29 -20 -37
-15 -170 111 -115 109 -139 153 -130 232 6 55 31 93 78 116 40 21 43 21 88 8z"/>
</g>
</svg>
