<?xml version="1.0" standalone="no"?>
<!DOCTYPE svg PUBLIC "-//W3C//DTD SVG 20010904//EN"
 "http://www.w3.org/TR/2001/REC-SVG-20010904/DTD/svg10.dtd">
<svg version="1.0" xmlns="http://www.w3.org/2000/svg"
 width="512.000000pt" height="512.000000pt" viewBox="0 0 512.000000 512.000000"
 preserveAspectRatio="xMidYMid meet">

<g transform="translate(0.000000,512.000000) scale(0.100000,-0.100000)"
fill="#000000" stroke="none">
<path d="M1175 4806 c-208 -31 -377 -96 -560 -215 -102 -66 -280 -247 -355
-361 -267 -408 -332 -927 -173 -1400 95 -283 278 -563 584 -896 226 -246 438
-439 1286 -1166 561 -483 556 -479 637 -464 19 4 49 19 68 34 69 55 1039 891
1208 1041 584 517 880 857 1064 1220 147 290 205 583 178 889 -36 390 -173
696 -426 947 -177 176 -371 287 -601 344 -369 91 -738 24 -1038 -190 -161
-114 -339 -312 -443 -491 -21 -37 -41 -68 -44 -68 -3 0 -23 31 -44 68 -104
179 -282 377 -443 491 -90 64 -228 136 -318 166 -168 56 -405 77 -580 51z"/>
</g>
</svg>
