<svg width="29" height="29" viewBox="0 0 29 29" fill="none" xmlns="http://www.w3.org/2000/svg">
<path d="M20.5417 2.4165H8.45835C5.12163 2.4165 2.41669 5.12145 2.41669 8.45817V20.5415C2.41669 23.8782 5.12163 26.5832 8.45835 26.5832H20.5417C23.8784 26.5832 26.5834 23.8782 26.5834 20.5415V8.45817C26.5834 5.12145 23.8784 2.4165 20.5417 2.4165Z" stroke="white" stroke-width="2" stroke-linecap="round" stroke-linejoin="round"/>
<path d="M19.3333 13.7386C19.4824 14.7443 19.3107 15.7713 18.8425 16.6737C18.3742 17.5761 17.6334 18.3078 16.7253 18.7649C15.8172 19.222 14.7881 19.3811 13.7844 19.2195C12.7807 19.058 11.8535 18.5841 11.1346 17.8653C10.4157 17.1464 9.94183 16.2192 9.78032 15.2155C9.61881 14.2118 9.7779 13.1827 10.235 12.2746C10.692 11.3665 11.4238 10.6256 12.3262 10.1574C13.2286 9.68919 14.2556 9.51742 15.2612 9.66654C16.287 9.81865 17.2367 10.2966 17.97 11.0299C18.7032 11.7632 19.1812 12.7128 19.3333 13.7386Z" stroke="white" stroke-width="2" stroke-linecap="round" stroke-linejoin="round"/>
<path d="M21.1458 7.854H21.1575" stroke="white" stroke-width="2" stroke-linecap="round" stroke-linejoin="round"/>
</svg>
