<svg width="192" height="81" viewBox="0 0 192 81" fill="none" xmlns="http://www.w3.org/2000/svg">
<path d="M94.8791 44.5736H94.7043H85.6028C81.8529 44.5736 78.445 43.0406 75.9754 40.571C73.5058 38.1015 71.9728 34.6934 71.9728 30.9436V28.2061H84.2493C85.944 28.2061 87.5689 28.5193 89.0689 29.0905C89.2859 27.2177 89.8303 25.4381 90.6439 23.8109C91.7558 21.5868 93.3724 19.6592 95.343 18.179C95.9291 17.7395 96.7211 17.7684 97.2704 18.2017C99.2274 19.6789 100.833 21.598 101.94 23.8108C102.753 25.4381 103.298 27.2176 103.515 29.0905C105.015 28.5193 106.639 28.2061 108.334 28.2061H120.611V30.9436C120.611 34.6934 119.078 38.1015 116.608 40.571C114.139 43.0406 110.731 44.5736 106.981 44.5736H98.1102C98.53 46.5074 99.5011 48.2356 100.851 49.5852C102.686 51.421 105.223 52.5566 108.025 52.5566C108.901 52.5566 109.612 53.2674 109.612 54.1441C109.612 55.0208 108.901 55.7316 108.025 55.7316C104.346 55.7316 101.016 54.2406 98.6058 51.83C96.6779 49.902 95.3383 47.3857 94.8791 44.5736V44.5736ZM89.046 32.5556C87.6069 31.8058 85.9751 31.3811 84.2493 31.3811H75.1571C75.2699 34.0818 76.4213 36.5274 78.2202 38.3262C80.1158 40.2218 82.7294 41.3986 85.6028 41.3986H92.8932C92.0093 40.3854 91.2512 39.259 90.6438 38.0441C89.8001 36.3565 89.2458 34.5051 89.046 32.5556ZM99.6905 41.3986H106.981C109.854 41.3986 112.468 40.2218 114.363 38.3262C116.162 36.5274 117.314 34.0818 117.426 31.3811H108.334C106.608 31.3811 104.977 31.8058 103.537 32.5556C103.338 34.5051 102.783 36.3565 101.94 38.0442C101.332 39.259 100.574 40.3853 99.6905 41.3986V41.3986ZM99.112 25.2246C98.4063 23.813 97.4461 22.55 96.2917 21.4956C95.1374 22.55 94.1772 23.8131 93.4715 25.2247C92.6181 26.9315 92.1379 28.8679 92.1379 30.9275C92.1379 32.9873 92.6181 34.9236 93.4714 36.6303C94.1772 38.042 95.1373 39.305 96.2917 40.3594C97.4461 39.305 98.4063 38.042 99.112 36.6304C99.9654 34.9235 100.446 32.9872 100.446 30.9275C100.446 28.8678 99.9654 26.9315 99.112 25.2246Z" fill="#65C947"/>
<path d="M14.4375 74.6639C14.4375 75.187 14.1776 75.4469 13.6577 75.4469H3.13486V79.7151C3.13486 80.2318 2.87486 80.4918 2.35496 80.4918H1.70996C1.19646 80.4918 0.939758 80.2318 0.939758 79.7119V71.2654C0.939758 70.5497 1.35376 69.9239 2.18166 69.388C3.12516 68.7686 4.37356 68.4573 5.92036 68.4573H7.56676C8.08655 68.4573 8.34655 68.7173 8.34655 69.234V69.4811C8.34655 70.0042 8.08655 70.2673 7.56676 70.2673H6.07125C5.27215 70.2673 4.58536 70.3732 4.00456 70.5818C3.42366 70.7904 3.13486 71.0503 3.13486 71.3616V73.6369H13.6577C14.1776 73.6369 14.4375 73.8937 14.4375 74.4104V74.6639V74.6639ZM34.0655 79.391C34.0719 79.4199 34.0783 79.468 34.0848 79.5322C34.0912 79.5964 34.0944 79.6445 34.0944 79.6831C34.0944 79.9045 34.0591 80.0778 33.9917 80.2094C33.9243 80.3377 33.8312 80.4404 33.7125 80.5174C33.4301 80.6907 33.1766 80.7806 32.9455 80.7806C32.769 80.7806 32.6085 80.7325 32.4577 80.6362C32.3101 80.5399 32.1625 80.3827 32.0181 80.1612L30.0669 77.3339H20.8084L18.8411 80.1676C18.777 80.2896 18.7192 80.3762 18.6614 80.4244C18.5266 80.5592 18.3598 80.6266 18.164 80.6266C18.0356 80.6266 17.8752 80.588 17.6858 80.5142C17.4676 80.418 17.3168 80.3056 17.2333 80.1773C17.1467 80.0489 17.105 79.9205 17.105 79.7954C17.105 79.7504 17.1082 79.7151 17.1146 79.6831C17.121 79.651 17.1307 79.6221 17.1435 79.5964L24.0914 68.974C24.2679 68.7269 24.4572 68.5568 24.6594 68.4637C24.8648 68.3707 25.1215 68.3225 25.436 68.3225C25.6799 68.3418 25.866 68.3675 25.9912 68.3964C26.3731 68.5055 26.6106 68.6948 26.7036 68.9708L34.0655 79.391V79.391ZM28.7639 75.5239L25.436 70.6139L22.0856 75.5239H28.7639ZM51.4182 77.5169C51.4182 78.1812 51.3059 78.6978 51.0812 79.0669C50.7988 79.5354 50.2982 79.882 49.5761 80.1067C48.761 80.3634 47.6185 80.4918 46.1487 80.4918H38.5461C38.0327 80.4918 37.7759 80.2318 37.7759 79.7087V79.4648C37.7759 78.9417 38.0327 78.6818 38.5461 78.6818H46.1487C47.2976 78.6818 48.1191 78.563 48.623 78.3256C49.0241 78.1394 49.2231 77.8827 49.2231 77.5522V76.5156C49.2231 76.0856 48.9696 75.7775 48.4625 75.5913C47.9555 75.4052 47.1917 75.3121 46.1776 75.3121H43.2733C41.3799 75.3121 39.9742 75.0586 39.0532 74.5516C38.1835 74.067 37.7471 73.361 37.7471 72.4335V71.5317C37.7471 70.5176 38.1033 69.7699 38.8189 69.2949C39.6533 68.7365 41.0654 68.4573 43.0583 68.4573H44.1783C44.6982 68.4573 44.9581 68.7173 44.9581 69.234V69.4811C44.9581 70.0042 44.6982 70.2673 44.1783 70.2673H43.0294C42.0634 70.2673 41.3253 70.3572 40.8182 70.5369C40.2342 70.7455 39.9421 71.0696 39.9421 71.5189V72.3501C39.9421 72.7705 40.1989 73.0593 40.7091 73.2198C41.2194 73.3834 42.0602 73.4637 43.2316 73.4637H46.1744C47.8271 73.4637 49.114 73.7332 50.035 74.2692C50.9561 74.8083 51.4182 75.5304 51.4182 76.4386V77.5169ZM70.9948 79.7119C70.9948 80.2318 70.7316 80.4918 70.2085 80.4918H69.5859C69.0628 80.4918 68.7997 80.2318 68.7997 79.7151V75.4469H58.1709V79.7151C58.1709 80.2318 57.9109 80.4918 57.391 80.4918H56.746C56.2325 80.4918 55.9758 80.2318 55.9758 79.7119V69.2275C55.9758 68.7141 56.2325 68.4573 56.746 68.4573H57.391C57.9109 68.4573 58.1709 68.7141 58.1709 69.2275V73.6369H68.7997V69.2275C68.7997 68.7141 69.0628 68.4573 69.5859 68.4573H70.2085C70.7316 68.4573 70.9948 68.7141 70.9948 69.2275V79.7119ZM77.8727 79.7119C77.8727 80.2318 77.6127 80.4918 77.0928 80.4918H76.4478C75.9343 80.4918 75.6776 80.2318 75.6776 79.7119V69.2275C75.6776 68.7141 75.9343 68.4573 76.4478 68.4573H77.0928C77.6127 68.4573 77.8727 68.7141 77.8727 69.2275V79.7119ZM97.1316 77.2633C97.1316 78.271 96.708 79.0476 95.864 79.59C94.9301 80.1901 93.4924 80.4918 91.5476 80.4918H88.1298C86.6889 80.4918 85.5208 80.3153 84.6318 79.9655C83.8809 79.6734 83.3289 79.2562 82.9791 78.7171C82.6967 78.2871 82.5555 77.8025 82.5555 77.273V71.7243C82.5555 70.5529 83.1043 69.6961 84.1986 69.1505C85.126 68.6884 86.4322 68.4573 88.1202 68.4573H91.5476C93.6111 68.4573 95.0681 68.7205 95.9185 69.2468C96.7272 69.7474 97.1316 70.5722 97.1316 71.7243V77.2633V77.2633ZM94.9365 77.212V71.782C94.9365 71.2397 94.6605 70.8514 94.1086 70.6171C93.5566 70.3828 92.719 70.2673 91.599 70.2673H88.1074C87.0163 70.2673 86.1979 70.3796 85.6524 70.6043C85.0522 70.8546 84.7506 71.2461 84.7506 71.782V77.212C84.7506 77.7479 85.0426 78.133 85.6267 78.3641C86.1594 78.5759 86.9874 78.6818 88.1074 78.6818H91.6054C92.6869 78.6818 93.4924 78.5791 94.0251 78.3737C94.6316 78.1362 94.9365 77.7479 94.9365 77.212V77.212ZM116.721 79.2145C116.721 79.7729 116.577 80.1516 116.288 80.3538C116.082 80.4982 115.739 80.5688 115.264 80.5688C115.081 80.5688 114.86 80.4757 114.597 80.2896C114.513 80.2286 114.401 80.1355 114.256 80.0104L103.993 71.2846V79.728C103.993 80.2479 103.733 80.5078 103.214 80.5078H102.569C102.055 80.5078 101.798 80.2479 101.798 79.728V69.6768V69.2436C101.798 69.096 101.85 68.9612 101.949 68.8392C102.049 68.7205 102.187 68.6114 102.363 68.5119C102.443 68.4605 102.536 68.4252 102.636 68.3996C102.735 68.3739 102.835 68.3611 102.928 68.3611C103.23 68.3611 103.563 68.467 103.936 68.6788C104.054 68.7494 104.208 68.8553 104.395 68.9997L114.526 77.6131V69.2243C114.526 68.7109 114.786 68.4573 115.306 68.4573H115.941C116.461 68.4573 116.721 68.7141 116.721 69.2275V79.2145V79.2145ZM155.072 69.7827L149.141 75.479V79.7151C149.141 80.2318 148.885 80.4918 148.368 80.4918H147.729C147.206 80.4918 146.946 80.235 146.946 79.7248V75.479L140.997 69.7827C140.766 69.5549 140.65 69.3302 140.65 69.1056C140.65 68.9162 140.73 68.7622 140.891 68.6403C141.051 68.5183 141.269 68.4573 141.545 68.4573H142.222C142.296 68.4573 142.393 68.4798 142.505 68.5215C142.617 68.5632 142.701 68.6114 142.758 68.6691L148.031 73.7172L153.31 68.6691C153.362 68.621 153.442 68.5729 153.557 68.5247C153.67 68.4798 153.766 68.4573 153.846 68.4573H154.533C154.802 68.4573 155.018 68.5183 155.178 68.6403C155.338 68.7622 155.419 68.9162 155.419 69.1056C155.419 69.3302 155.303 69.5549 155.072 69.7827ZM171.956 77.2633C171.956 78.271 171.533 79.0476 170.689 79.59C169.755 80.1901 168.317 80.4918 166.372 80.4918H162.954C161.513 80.4918 160.345 80.3153 159.456 79.9655C158.705 79.6734 158.153 79.2562 157.804 78.7171C157.521 78.2871 157.38 77.8025 157.38 77.273V71.7243C157.38 70.5529 157.929 69.6961 159.023 69.1505C159.951 68.6884 161.257 68.4573 162.945 68.4573H166.372C168.436 68.4573 169.893 68.7205 170.743 69.2468C171.552 69.7474 171.956 70.5722 171.956 71.7243V77.2633V77.2633ZM169.761 77.212V71.782C169.761 71.2397 169.485 70.8514 168.933 70.6171C168.381 70.3828 167.544 70.2673 166.424 70.2673H162.932C161.841 70.2673 161.022 70.3796 160.477 70.6043C159.877 70.8546 159.575 71.2461 159.575 71.782V77.212C159.575 77.7479 159.867 78.133 160.451 78.3641C160.984 78.5759 161.812 78.6818 162.932 78.6818H166.43C167.511 78.6818 168.317 78.5791 168.85 78.3737C169.456 78.1362 169.761 77.7479 169.761 77.212V77.212ZM191.642 77.1029C191.642 77.6837 191.504 78.194 191.228 78.6336C190.878 79.1953 190.307 79.6317 189.517 79.9366C188.571 80.3056 187.316 80.4918 185.756 80.4918H182.672C180.987 80.4918 179.691 80.3377 178.789 80.0329C177.993 79.7633 177.438 79.3525 177.124 78.8005C176.893 78.3962 176.777 77.8281 176.777 77.1029V69.2275C176.777 68.7141 177.034 68.4573 177.547 68.4573H178.192C178.712 68.4573 178.972 68.7141 178.972 69.2275V76.9552C178.972 77.6003 179.283 78.0528 179.903 78.3159C180.474 78.5598 181.405 78.6818 182.695 78.6818H185.724C187.034 78.6818 187.964 78.5663 188.516 78.3352C189.136 78.072 189.447 77.6163 189.447 76.9649V69.2275C189.447 68.7141 189.707 68.4573 190.23 68.4573H190.868C191.385 68.4573 191.642 68.7141 191.642 69.2275V77.1029V77.1029Z" fill="black"/>
<path d="M137.36 79.7119C137.36 80.2318 137.1 80.4918 136.583 80.4918H135.662C135.152 80.4918 134.895 80.2318 134.895 79.7119V77.4302H122.161C121.741 77.4302 121.442 77.305 121.266 77.0547C121.121 76.8558 121.051 76.5605 121.051 76.1722V69.2372C121.051 68.7173 121.308 68.4573 121.818 68.4573H122.749C123.259 68.4573 123.516 68.7173 123.516 69.2372V75.3507H134.895V69.2372C134.895 68.7173 135.152 68.4573 135.662 68.4573H136.583C137.1 68.4573 137.36 68.7173 137.36 69.2372V79.7119Z" fill="#65C947"/>
<path d="M89.3034 11.8554C90.0945 12.2252 90.436 13.1665 90.0662 13.9576C89.6964 14.7487 88.7551 15.0902 87.964 14.7204C87.4325 14.4704 86.8713 14.2765 86.2885 14.1468C85.9908 14.0806 85.6814 14.0312 85.3612 13.9997L84.61 14.0454C82.2845 14.1868 80.2035 15.2054 78.7123 16.7915C77.2485 18.3485 76.3525 20.4615 76.3525 22.8363C76.3525 23.7649 76.5281 24.7659 76.8471 25.7786C77.1052 26.5977 77.452 27.4166 77.8717 28.2061H74.3697C74.1607 27.7127 73.9769 27.2162 73.8209 26.7212C73.4059 25.4038 73.1775 24.0831 73.1775 22.8363C73.1775 19.6237 74.4031 16.7509 76.4055 14.6211C78.1562 12.7591 80.5009 11.4718 83.1384 11.0293C83.7238 8.15552 85.2233 5.61752 87.3189 3.73382C89.5752 1.70562 92.5199 0.430225 95.757 0.303225C95.8263 0.294025 95.897 0.289124 95.9689 0.289124C96.0713 0.289124 96.1733 0.290425 96.2751 0.292725L96.2918 0.292625C99.7388 0.292625 102.885 1.59442 105.265 3.73382C107.36 5.61752 108.86 8.15542 109.445 11.0293C112.083 11.4718 114.427 12.7591 116.178 14.6211C118.18 16.7508 119.406 19.6238 119.406 22.8363C119.406 24.0497 119.238 25.3578 118.92 26.679C118.797 27.1895 118.652 27.7001 118.484 28.2061H115.118C115.418 27.4658 115.662 26.7051 115.844 25.9472C116.097 24.8959 116.231 23.8373 116.231 22.8363C116.231 20.4615 115.335 18.3484 113.871 16.7915C112.662 15.5058 111.066 14.5931 109.266 14.2181C109.244 14.7778 109.193 15.3236 109.115 15.8553C109.004 16.6101 108.84 17.3223 108.628 17.9916C108.364 18.8272 107.473 19.2909 106.637 19.0272C105.802 18.7635 105.338 17.8722 105.602 17.0366C105.766 16.5166 105.893 15.9696 105.977 15.3965C106.06 14.8363 106.103 14.2371 106.103 13.5983C106.103 10.7997 104.969 8.26602 103.135 6.43222C101.362 4.65892 98.9341 3.53992 96.2452 3.46792C93.6273 3.47952 91.2428 4.46932 89.4397 6.09022C88.0109 7.37442 86.9448 9.05142 86.4131 10.9486C86.5996 10.9808 86.7856 11.0174 86.9707 11.0586C87.787 11.2403 88.5681 11.5096 89.3034 11.8554V11.8554Z" fill="black"/>
</svg>
