<svg width="577" height="429" viewBox="0 0 577 429" fill="none" xmlns="http://www.w3.org/2000/svg">
<g filter="url(#filter0_d_736_4640)">
<path d="M260.193 97.2448C260.195 97.6768 260.068 98.0996 259.829 98.4595C259.59 98.8195 259.25 99.1004 258.851 99.2668C258.453 99.4331 258.014 99.4774 257.59 99.3941C257.166 99.3107 256.776 99.1035 256.47 98.7985C256.164 98.4936 255.955 98.1047 255.871 97.6811C255.786 97.2575 255.829 96.8183 255.994 96.419C256.159 96.0197 256.438 95.6784 256.797 95.4382C257.156 95.198 257.579 95.0698 258.011 95.0698C258.588 95.0698 259.142 95.2987 259.551 95.7064C259.961 96.1141 260.191 96.6673 260.193 97.2448Z" fill="#DDDDDD"/>
<path d="M270.305 97.2451H312.676" stroke="#EDEDED" stroke-width="2" stroke-linecap="round" stroke-linejoin="round"/>
<path d="M260.193 107.341C260.193 107.773 260.065 108.195 259.826 108.554C259.586 108.913 259.245 109.193 258.846 109.358C258.447 109.523 258.008 109.566 257.585 109.482C257.162 109.398 256.773 109.19 256.467 108.885C256.162 108.579 255.954 108.191 255.87 107.767C255.786 107.344 255.829 106.905 255.994 106.506C256.159 106.107 256.439 105.766 256.798 105.527C257.157 105.287 257.579 105.159 258.011 105.159C258.298 105.158 258.582 105.213 258.847 105.323C259.112 105.432 259.353 105.593 259.556 105.796C259.759 105.999 259.92 106.24 260.029 106.505C260.139 106.77 260.194 107.054 260.193 107.341V107.341Z" fill="#DDDDDD"/>
<path d="M270.305 107.342H286.637" stroke="#EDEDED" stroke-width="2" stroke-linecap="round" stroke-linejoin="round"/>
<path d="M134.943 97.2448C134.945 97.6768 134.818 98.0996 134.579 98.4595C134.34 98.8195 134 99.1004 133.601 99.2668C133.203 99.4331 132.764 99.4774 132.34 99.3941C131.916 99.3107 131.526 99.1035 131.22 98.7985C130.914 98.4936 130.705 98.1047 130.621 97.6811C130.536 97.2575 130.579 96.8183 130.744 96.419C130.909 96.0197 131.188 95.6784 131.547 95.4382C131.906 95.198 132.329 95.0698 132.761 95.0698C133.338 95.0698 133.892 95.2987 134.301 95.7064C134.711 96.1141 134.941 96.6673 134.943 97.2448V97.2448Z" fill="#DDDDDD"/>
<path d="M145.063 97.2451H201.514" stroke="#EDEDED" stroke-width="2" stroke-linecap="round" stroke-linejoin="round"/>
<path d="M132.761 109.524C133.966 109.524 134.943 108.547 134.943 107.341C134.943 106.136 133.966 105.159 132.761 105.159C131.555 105.159 130.578 106.136 130.578 107.341C130.578 108.547 131.555 109.524 132.761 109.524Z" fill="#DDDDDD"/>
<path d="M145.063 107.342H172.392" stroke="#EDEDED" stroke-width="2" stroke-linecap="round" stroke-linejoin="round"/>
<path d="M134.943 117.621C134.945 118.053 134.818 118.476 134.579 118.836C134.34 119.196 134 119.477 133.601 119.643C133.203 119.81 132.764 119.854 132.34 119.771C131.916 119.687 131.526 119.48 131.22 119.175C130.914 118.87 130.705 118.481 130.621 118.058C130.536 117.634 130.579 117.195 130.744 116.795C130.909 116.396 131.188 116.055 131.547 115.815C131.906 115.574 132.329 115.446 132.761 115.446C133.338 115.446 133.892 115.675 134.301 116.083C134.711 116.491 134.941 117.044 134.943 117.621V117.621Z" fill="#DDDDDD"/>
<path d="M145.063 117.621H180.642" stroke="#EDEDED" stroke-width="2" stroke-linecap="round" stroke-linejoin="round"/>
<path d="M345.438 73.4648H251.921V84.9046H345.438V73.4648Z" stroke="#DDDDDD" stroke-linecap="round" stroke-linejoin="round"/>
<path d="M222.585 73.4648H129.067V84.9046H222.585V73.4648Z" stroke="#DDDDDD" stroke-linecap="round" stroke-linejoin="round"/>
<path d="M469.101 51.5771H89.6804V293.499H469.101V51.5771Z" stroke="#EDEDED" stroke-width="2" stroke-linecap="round" stroke-linejoin="round"/>
<path d="M475.412 293.805H83.3613V304.382H475.412V293.805Z" stroke="#DDDDDD" stroke-width="2" stroke-linecap="round" stroke-linejoin="round"/>
<path d="M475.412 41H83.3613V51.5774H475.412V41Z" stroke="#DDDDDD" stroke-width="2" stroke-linecap="round" stroke-linejoin="round"/>
<path d="M414.321 86.4231C396.593 79.173 387.801 99.496 394.479 112.264C396.051 115.255 395.822 117.69 394.334 121.322C392.846 124.955 392.808 127.55 396.83 129.183C400.851 130.816 402.63 128.954 404.118 125.321C405.606 121.689 407.17 119.796 410.361 118.758C424.082 114.332 432.057 93.6731 414.321 86.4231Z" fill="#F9F9F9" stroke="#DDDDDD" stroke-linecap="round" stroke-linejoin="round"/>
<path d="M398.822 125.268C397.791 120.941 398.135 117.934 401.233 117.202C404.332 116.469 406.82 114.714 405.461 112.447C404.103 110.181 398.471 109.654 400.012 112.401C401.554 115.149 409.666 114.164 407.766 111.478C405.866 108.792 401.332 106.563 403.187 106.136C405.041 105.708 410.712 108.273 408.88 106.273C405.202 102.267 409.498 101.419 410.681 97.1152" stroke="#DDDDDD" stroke-linecap="round" stroke-linejoin="round"/>
<path d="M406.392 124.001C405.766 125.061 405.225 126.168 404.774 127.313C404.435 128.181 404.027 129.021 403.553 129.824C401.859 132.671 399.593 133.808 395.586 132.175C391.579 130.542 390.778 128.138 391.564 124.925C391.785 124.016 392.081 123.128 392.449 122.269C392.924 121.137 393.314 119.971 393.617 118.781C397.518 121.292 401.849 123.061 406.392 124.001V124.001Z" fill="#F9F9F9" stroke="#EDEDED" stroke-linecap="round" stroke-linejoin="round"/>
<path d="M406.392 124.002C405.829 124.949 405.342 125.939 404.935 126.963C404.874 127.077 404.828 127.199 404.774 127.314C404.435 128.182 404.026 129.021 403.553 129.824C401.912 130.191 399.806 129.886 396.998 128.733C394.189 127.581 392.472 126.329 391.564 124.917C391.785 124.009 392.081 123.121 392.449 122.262L392.587 121.903C393.003 120.886 393.348 119.84 393.617 118.774C397.518 121.287 401.849 123.059 406.392 124.002Z" fill="#F9F9F9" stroke="#EDEDED" stroke-linecap="round" stroke-linejoin="round"/>
<path d="M406.392 124.001C405.829 124.949 405.342 125.939 404.934 126.962C400.519 126.132 396.318 124.413 392.586 121.91C393.003 120.893 393.348 119.847 393.617 118.781C397.518 121.292 401.849 123.061 406.392 124.001V124.001Z" fill="#F9F9F9" stroke="#EDEDED" stroke-linecap="round" stroke-linejoin="round"/>
<path d="M417.336 81.6688L420.686 73.4648" stroke="#DDDDDD" stroke-width="2" stroke-linecap="round" stroke-linejoin="round"/>
<path d="M430.355 94.2611L438.422 93.1011" stroke="#DDDDDD" stroke-width="2" stroke-linecap="round" stroke-linejoin="round"/>
<path d="M394.456 83.0804L387.244 75.3496" stroke="#DDDDDD" stroke-width="2" stroke-linecap="round" stroke-linejoin="round"/>
<path d="M405.988 79.8372V74.3882" stroke="#EDEDED" stroke-linecap="round" stroke-linejoin="round"/>
<path d="M387.222 96.0771L381.17 96.9472" stroke="#EDEDED" stroke-linecap="round" stroke-linejoin="round"/>
<path d="M427.242 111.165L429.47 114.988" stroke="#EDEDED" stroke-linecap="round" stroke-linejoin="round"/>
<path d="M425.669 87.8885L430.027 85.8203" stroke="#EDEDED" stroke-linecap="round" stroke-linejoin="round"/>
<path d="M120.665 124.23H102.791C101.251 130.965 101.691 138.002 104.058 144.492L122.794 144.195C122.794 144.195 117.742 133.221 120.665 124.23Z" fill="#DDDDDD" stroke="#DDDDDD" stroke-miterlimit="10"/>
<path d="M116.635 129.283H107.538" stroke="#F9F9F9" stroke-linecap="round" stroke-linejoin="round"/>
<path d="M116.055 133.228H109.179" stroke="#F9F9F9" stroke-linecap="round" stroke-linejoin="round"/>
<path d="M116.498 136.99H106.966" stroke="#F9F9F9" stroke-linecap="round" stroke-linejoin="round"/>
<path d="M107.08 94.3755H124.282C125.625 100.412 124.551 106.735 121.29 111.989L102.677 111.226C102.677 111.226 108.355 103.076 107.08 94.3755Z" stroke="#DDDDDD" stroke-linecap="round" stroke-linejoin="round"/>
<path d="M110.225 98.4888H121.458" stroke="#DDDDDD" stroke-linecap="round" stroke-linejoin="round"/>
<path d="M110.385 102.259H119.352" stroke="#DDDDDD" stroke-linecap="round" stroke-linejoin="round"/>
<path d="M110.225 107.189H114.46" stroke="#DDDDDD" stroke-linecap="round" stroke-linejoin="round"/>
<path d="M115.422 107.189H118.238" stroke="#DDDDDD" stroke-linecap="round" stroke-linejoin="round"/>
<path d="M149.459 150.819L166.668 150.857C168.018 156.887 166.955 163.206 163.707 168.463L145.101 167.7C145.101 167.7 150.733 159.504 149.459 150.819Z" stroke="#EDEDED" stroke-linecap="round" stroke-linejoin="round"/>
<path d="M152.603 154.94H163.837" stroke="#EDEDED" stroke-linecap="round" stroke-linejoin="round"/>
<path d="M152.763 158.702H161.73" stroke="#EDEDED" stroke-linecap="round" stroke-linejoin="round"/>
<path d="M152.603 163.632H156.839" stroke="#EDEDED" stroke-linecap="round" stroke-linejoin="round"/>
<path d="M157.8 163.632H160.616" stroke="#EDEDED" stroke-linecap="round" stroke-linejoin="round"/>
<path d="M292.681 159.641H309.883C311.224 165.675 310.15 171.995 306.891 177.247L288.278 176.484C288.278 176.484 293.948 168.326 292.681 159.641Z" stroke="#EDEDED" stroke-linecap="round" stroke-linejoin="round"/>
<path d="M295.818 163.762H307.051" stroke="#EDEDED" stroke-linecap="round" stroke-linejoin="round"/>
<path d="M295.978 167.524H304.945" stroke="#EDEDED" stroke-linecap="round" stroke-linejoin="round"/>
<path d="M295.818 172.455H300.053" stroke="#EDEDED" stroke-linecap="round" stroke-linejoin="round"/>
<path d="M301.015 172.455H303.831" stroke="#EDEDED" stroke-linecap="round" stroke-linejoin="round"/>
<path d="M350.681 92.75L333.48 92.7882C332.138 98.8223 333.212 105.142 336.471 110.394L355.085 109.631C355.085 109.631 349.422 101.435 350.681 92.75Z" stroke="#DDDDDD" stroke-linecap="round" stroke-linejoin="round"/>
<path d="M347.552 96.8711H336.319" stroke="#DDDDDD" stroke-linecap="round" stroke-linejoin="round"/>
<path d="M347.392 100.633H338.433" stroke="#DDDDDD" stroke-linecap="round" stroke-linejoin="round"/>
<path d="M347.552 105.563H343.317" stroke="#DDDDDD" stroke-linecap="round" stroke-linejoin="round"/>
<path d="M342.355 105.563H339.539" stroke="#DDDDDD" stroke-linecap="round" stroke-linejoin="round"/>
<path d="M237.726 71.3584V251.472" stroke="#EDEDED" stroke-linecap="round" stroke-linejoin="round"/>
</g>
<g filter="url(#filter1_d_736_4640)">
<path d="M327.55 116.736C323.375 104.373 321.536 99.9465 319.155 97.2679C316.774 94.5892 310.035 91.7426 310.035 91.7426C310.035 91.7426 307.227 80.8599 303.632 81.211C300.038 81.562 305.998 96.0392 305.998 96.0392L302.838 110.249C303.863 111.917 304.661 113.713 305.212 115.591C307.669 123.666 314.408 124.429 316.262 131.206C316.148 130.816 327.511 124.009 327.55 116.736Z" fill="#FEBD9D"/>
<path d="M327.55 116.736C323.375 104.373 321.536 99.9465 319.155 97.2679C316.774 94.5892 310.035 91.7426 310.035 91.7426C310.035 91.7426 307.227 80.8599 303.632 81.211C300.038 81.562 305.998 96.0392 305.998 96.0392L302.838 110.249C303.863 111.917 304.661 113.713 305.212 115.591C307.669 123.666 314.408 124.429 316.262 131.206C316.148 130.816 327.511 124.009 327.55 116.736Z" fill="#FEBD9D"/>
<path d="M319.162 97.2679C316.797 94.5434 310.043 91.7426 310.043 91.7426C310.043 91.7426 307.234 80.8599 303.64 81.211C300.045 81.562 306.006 96.0392 306.006 96.0392L302.846 110.249" stroke="#EF8A66" stroke-width="0.75" stroke-linecap="round" stroke-linejoin="round"/>
<path d="M299.275 104.686C302.243 102.335 307.333 110.944 304.258 113.294C302.052 114.981 296.451 106.891 299.275 104.686Z" fill="#FEBD9D" stroke="#EF8A66" stroke-miterlimit="10"/>
<path d="M310.043 91.7428C307.677 90.8118 307.379 94.7955 309.447 96.3218C311.516 97.8481 312.836 98.1687 313.133 99.1303C313.431 100.092 314.019 103.106 314.019 103.106C313.355 105.011 313.102 107.034 313.274 109.044C313.446 111.053 314.041 113.003 315.018 114.767" stroke="#EF8A66" stroke-width="0.75" stroke-linecap="round" stroke-linejoin="round"/>
<path d="M301.495 99.7632C304.464 97.4127 310.752 108.158 307.677 110.493C305.479 112.172 298.672 101.992 301.495 99.7632Z" fill="#FEBD9D" stroke="#EF8A66" stroke-miterlimit="10"/>
<path d="M304.075 96.2832C307.043 93.9327 313.34 104.678 310.264 107.013C308.066 108.692 301.259 98.4964 304.075 96.2832Z" fill="#FEBD9D" stroke="#EF8A66" stroke-miterlimit="10"/>
<path d="M316.682 139.035L312.676 131.213C312.676 131.213 322.475 124.505 327.55 116.713L330.915 122.353C330.915 122.353 326.893 140.035 316.682 139.035Z" fill="white"/>
<path d="M375.255 176.736C361.587 157.039 344.08 137.654 341.592 134.945C340.275 133.39 338.424 132.383 336.402 132.121L330.297 121.277C330.297 121.277 323.635 131.198 312.676 136.54L318.216 147.163C318.216 147.163 316.522 148.453 320.246 156.275C323.971 164.098 338.387 193.976 345.675 199.905C363.105 214.085 393.22 202.63 375.255 176.736Z" fill="#A7CAF0"/>
<path d="M327.092 141.104L320.925 131.213" stroke="#83ADDF" stroke-width="0.75" stroke-linecap="round" stroke-linejoin="round"/>
<path d="M323.413 143.561L317.354 133.846" stroke="#83ADDF" stroke-width="0.75" stroke-linecap="round" stroke-linejoin="round"/>
<path d="M327.55 124.78L334.052 135.212" stroke="#83ADDF" stroke-width="0.75" stroke-linecap="round" stroke-linejoin="round"/>
<path d="M324.291 128.069L330.801 138.502" stroke="#83ADDF" stroke-width="0.75" stroke-linecap="round" stroke-linejoin="round"/>
<path d="M375.255 176.736C361.586 157.039 344.08 137.654 341.592 134.945C340.274 133.39 338.424 132.383 336.402 132.121L330.297 121.277" stroke="#83ADDF" stroke-width="0.75" stroke-linecap="round" stroke-linejoin="round"/>
<path d="M502.695 363.375H427.234V303.917L494.72 302.978C499.917 324.904 502.695 363.375 502.695 363.375Z" fill="#683F1D"/>
<path d="M463.972 363.375C463.972 363.375 461.5 339.427 461.248 337.145C461.174 336.541 460.904 335.978 460.48 335.542C460.055 335.107 459.499 334.822 458.897 334.733C457.45 334.435 455.957 334.435 454.509 334.733" stroke="#91613D" stroke-width="0.75" stroke-linecap="round" stroke-linejoin="round"/>
<path d="M508.129 218.946C506.923 238.857 502.787 269.811 499.925 289.531C498.314 300.635 497.132 308.183 497.132 308.183C497.132 308.183 448.846 310.06 435.728 309.709C422.609 309.358 421.174 308.389 421.174 303.1C421.174 297.811 421.395 231.767 421.395 231.767C421.395 231.767 356.618 208.873 347.293 201.096C337.967 193.319 349.132 167.761 373.11 173.004C379.139 174.324 385.13 175.667 391.251 177.018C409.444 181.055 428.745 185.115 452.945 188.55C479.228 192.304 495.682 192.518 506.915 199.905C508.579 200.997 508.77 208.438 508.129 218.946Z" fill="#A7CAF0"/>
<path d="M490.691 238.964C480.487 245.435 480.464 254.54 484.456 261.592C493.659 277.824 466.903 267.277 465.75 287.409L504.488 278.206L490.691 238.964Z" fill="#93BEE5"/>
<path d="M522.293 225.181C517.868 222.493 513.104 220.407 508.129 218.976C499.894 216.687 491.95 217.168 486.676 222.601C485.733 223.57 484.911 224.649 484.226 225.814C471.016 247.946 434.079 243.909 427.234 220.571C421.411 200.729 412.428 188.397 391.25 177.071C409.444 181.055 428.745 185.115 452.944 188.549C479.228 192.304 495.681 192.518 506.915 199.905C512.12 202.103 517.546 212.161 522.293 225.181Z" fill="#C3DCF8"/>
<path d="M455.409 187.107C446.801 187.107 439.818 192.61 439.818 199.387C439.818 203.203 442.031 206.621 445.511 208.873C447.195 209.957 449.058 210.732 451.014 211.162C452.455 211.497 453.93 211.663 455.409 211.658C455.738 211.658 456.058 211.658 456.379 211.658C458.454 211.568 460.499 211.132 462.431 210.369C464.259 209.672 465.94 208.637 467.383 207.316C468.501 206.324 469.401 205.112 470.026 203.755C470.651 202.398 470.988 200.926 471.016 199.432C471.016 192.61 464.033 187.107 455.409 187.107ZM460.576 205.339C459.052 205.81 457.47 206.067 455.875 206.103H455.409C454.161 206.107 452.915 205.979 451.693 205.721C450.122 205.414 448.614 204.841 447.236 204.027C445.023 202.691 443.649 200.814 443.649 198.738C443.649 194.663 448.915 191.366 455.409 191.366C461.904 191.366 467.177 194.663 467.177 198.738C467.177 200.531 466.155 202.172 464.445 203.454C463.276 204.304 461.966 204.942 460.576 205.339V205.339Z" stroke="#83ADDF" stroke-width="0.75" stroke-linecap="round" stroke-linejoin="round"/>
<path d="M447.656 183.971C444.741 184.528 441.497 185.497 439.872 188.29C438.246 191.083 438.17 202.722 439.658 203.996C441.146 205.271 443.13 199.181 452.006 196.212L447.656 183.971Z" fill="white"/>
<path d="M459.47 196.761L468.528 182.444C468.528 182.444 473.336 184.993 474.115 189.595C474.893 194.197 472.787 209.285 468.971 205.461C466.262 202.79 466.872 200.585 459.47 196.761Z" fill="white"/>
<path d="M445.511 208.872L447.236 204.003" stroke="#83ADDF" stroke-width="0.75" stroke-linecap="round" stroke-linejoin="round"/>
<path d="M451.014 211.17L451.693 205.698" stroke="#83ADDF" stroke-width="0.75" stroke-linecap="round" stroke-linejoin="round"/>
<path d="M456.379 211.643L455.875 206.072" stroke="#83ADDF" stroke-width="0.75" stroke-linecap="round" stroke-linejoin="round"/>
<path d="M462.431 210.353L460.576 205.324" stroke="#83ADDF" stroke-width="0.75" stroke-linecap="round" stroke-linejoin="round"/>
<path d="M467.383 207.27L464.445 203.431" stroke="#83ADDF" stroke-width="0.75" stroke-linecap="round" stroke-linejoin="round"/>
<path d="M469.902 184.383C469.971 186.169 466.33 197.906 456.226 198.883C446.122 199.86 444.641 188.855 444.702 185.962C444.702 184.795 444.832 182.734 444.977 180.155C445.176 176.614 445.443 172.103 445.641 167.631L445.687 166.654C446.801 140.707 469.078 145.889 467.689 159.641C466.842 168.12 469.818 182.605 469.902 184.383Z" fill="#FEBD9D"/>
<path d="M444.977 180.155C445.176 176.614 445.443 172.104 445.641 167.632L457.982 165.724C458.432 173.592 454.631 180.361 444.977 180.155Z" fill="#F4A789"/>
<path d="M494.918 276.13C494.918 275.977 494.835 275.825 494.796 275.664C491.339 261.767 488.47 247.229 487.264 234.538" stroke="#83ADDF" stroke-width="0.75" stroke-linecap="round" stroke-linejoin="round"/>
<path d="M438.444 258.684C437.33 253.846 440.246 252.426 442.787 251.556C442.55 250.19 443.054 247.977 446.084 247.504C448.953 247.053 449.983 249.877 449.983 249.877C449.983 249.877 456.02 247.832 457.546 253.975L438.444 258.684Z" fill="#DDDDDD"/>
<path d="M423.784 260.035L469.383 249.496L486.676 322.767L440.681 332.024L423.784 260.035Z" fill="#F9F9F9" stroke="#DDDDDD" stroke-linecap="round" stroke-linejoin="round"/>
<path d="M444.55 251.221C444.548 251.627 444.667 252.025 444.892 252.363C445.117 252.702 445.437 252.966 445.812 253.123C446.187 253.279 446.6 253.321 446.999 253.243C447.397 253.164 447.764 252.969 448.052 252.683C448.339 252.396 448.536 252.03 448.616 251.632C448.695 251.233 448.655 250.82 448.5 250.444C448.345 250.069 448.082 249.748 447.744 249.522C447.406 249.296 447.009 249.175 446.603 249.175C446.06 249.175 445.539 249.391 445.154 249.774C444.769 250.157 444.552 250.677 444.55 251.221V251.221Z" fill="#F9F9F9" stroke="#DDDDDD" stroke-linecap="round" stroke-linejoin="round"/>
<path d="M536.129 291.065C536.144 292.517 536.077 293.97 535.931 295.415V295.629C535.883 295.922 535.816 296.213 535.732 296.499C533.87 302.604 522.087 308.366 511.143 302.031C510.184 301.475 509.265 300.85 508.396 300.162C504.851 297.235 501.962 293.595 499.917 289.477C497.738 285.238 496.06 280.758 494.918 276.13C494.918 275.977 494.834 275.825 494.796 275.664C490.217 257.135 486.615 237.46 486.646 222.571C486.646 204.622 491.934 193.617 506.915 199.921C512.089 202.103 517.516 212.131 522.262 225.151C526.28 236.432 529.52 247.975 531.962 259.699C534.603 271.887 536.129 283.319 536.129 291.065Z" fill="#A7CAF0"/>
<path d="M535.961 295.438V295.651C535.913 295.945 535.847 296.236 535.763 296.521C533.901 302.627 522.117 308.388 511.174 302.054C510.214 301.498 509.296 300.873 508.426 300.184C511.764 298.461 515.52 297.713 519.263 298.025C539.403 299.841 518.034 277.595 532.016 259.699C534.587 271.909 536.16 283.319 536.182 291.065C536.278 292.526 536.204 293.993 535.961 295.438V295.438Z" fill="#93BEE5"/>
<path d="M522.293 225.181C517.868 222.493 513.105 220.407 508.129 218.976C499.894 216.687 491.95 217.168 486.676 222.601C486.676 204.652 491.965 193.647 506.946 199.951C512.12 202.103 517.546 212.161 522.293 225.181Z" fill="#C3DCF8"/>
<path d="M446.129 291.393C444.886 290.63 437.521 286.371 435.384 286.234C433.247 286.096 428.691 289.248 428.691 289.248C428.691 289.248 419.648 289.783 418.648 291.393C417.648 293.003 419.678 295.27 421.235 296.079C422.792 296.888 421.327 298.551 421.525 299.894C421.724 301.238 423.403 302.184 423.601 303.107C423.799 304.031 422.929 306.549 425.005 307.167C427.081 307.786 425.768 309.06 426.814 310.869C427.859 312.677 434.247 312.342 450.472 309.129L446.129 291.393Z" fill="#FEBD9D"/>
<path d="M435.392 286.233C433.247 286.104 428.699 289.248 428.699 289.248C428.699 289.248 419.655 289.782 418.656 291.392C417.656 293.003 419.686 295.269 421.243 296.078C422.8 296.887 421.334 298.551 421.533 299.894C421.731 301.237 423.41 302.183 423.609 303.107C423.807 304.03 422.937 306.549 425.013 307.167C427.089 307.785 425.776 309.06 426.821 310.868C427.241 311.578 428.485 311.96 430.82 311.96" stroke="#EF8A66" stroke-width="0.75" stroke-linecap="round" stroke-linejoin="round"/>
<path d="M444.992 289.927L448.251 310.777L455.127 309.762L452.99 289.416L444.992 289.927Z" fill="white"/>
<path d="M535.938 295.651C535.877 295.941 535.816 296.239 535.74 296.521C533.924 303.672 526.261 308.296 505.259 309.762C503.428 309.894 501.614 310.011 499.818 310.113C474.908 311.593 453.364 311.166 453.364 311.166L450.121 288.889C461.416 285.539 480.182 279.19 494.949 276.129C501.054 274.87 506.434 274.16 510.365 274.45C514.842 274.693 519.279 275.423 523.598 276.625C524.747 276.957 525.874 277.362 526.971 277.839C532.023 280.128 535.419 283.73 536.06 289.607C536.114 290.095 536.152 290.584 536.19 291.049C536.289 292.588 536.205 294.132 535.938 295.651Z" fill="#A7CAF0"/>
<path d="M510.365 274.45C506.434 274.16 501.031 274.87 494.949 276.129C480.182 279.182 461.416 285.539 450.121 288.889L453.364 311.166" stroke="#83ADDF" stroke-width="0.75" stroke-linecap="round" stroke-linejoin="round"/>
<path d="M450.51 291.53L463.728 289.416" stroke="#83ADDF" stroke-width="0.75" stroke-linecap="round" stroke-linejoin="round"/>
<path d="M451.136 295.811L463.98 294.208" stroke="#83ADDF" stroke-width="0.75" stroke-linecap="round" stroke-linejoin="round"/>
<path d="M451.609 299.1L464.293 298.024" stroke="#83ADDF" stroke-width="0.75" stroke-linecap="round" stroke-linejoin="round"/>
<path d="M452.311 303.923L464.552 302.977" stroke="#83ADDF" stroke-width="0.75" stroke-linecap="round" stroke-linejoin="round"/>
<path d="M452.99 307.854L464.995 306.648" stroke="#83ADDF" stroke-width="0.75" stroke-linecap="round" stroke-linejoin="round"/>
<path d="M428.691 289.286C431.965 288.95 434.911 288.813 434.911 288.813" stroke="#EF8A66" stroke-width="0.75" stroke-linecap="round" stroke-linejoin="round"/>
<path d="M535.938 295.651C535.89 295.945 535.824 296.235 535.74 296.521C533.924 303.672 526.261 308.296 505.259 309.762C503.428 309.894 501.614 310.011 499.818 310.113C504.488 298.559 514.86 297.628 519.24 298.024C532.725 299.245 527.635 289.683 526.941 277.854C531.993 280.143 535.389 283.746 536.03 289.622C536.083 290.11 536.121 290.599 536.16 291.064C536.268 292.597 536.193 294.136 535.938 295.651V295.651Z" fill="#93BEE5"/>
<path d="M466.231 142.424C465.73 146.125 464.837 149.763 463.568 153.276C461.591 158.42 458.393 162.915 453.181 162.876C452.631 162.869 452.082 162.818 451.54 162.724L437.681 157.038C437.681 157.038 437.742 156.771 437.88 156.275C438.854 152.906 440.278 149.685 442.115 146.697C442.275 146.446 442.451 146.194 442.619 145.934C445.916 140.936 449.213 136.937 449.213 136.937C449.213 136.937 449.403 132.152 453.311 131.449C457.218 130.747 467.315 135.128 466.231 142.424Z" fill="#FEBD9D"/>
<path d="M463.568 153.275C461.591 158.419 458.393 162.914 453.181 162.876C452.239 162.274 451.447 161.464 450.866 160.509C450.286 159.553 449.933 158.477 449.833 157.363C449.734 156.249 449.892 155.128 450.294 154.084C450.696 153.041 451.332 152.104 452.153 151.345C452.974 150.586 453.958 150.026 455.03 149.707C456.102 149.388 457.232 149.319 458.335 149.505C459.437 149.692 460.482 150.128 461.389 150.782C462.296 151.436 463.042 152.289 463.568 153.275V153.275Z" fill="#F4AF90"/>
<path d="M443.13 150.108C443.13 151.592 442.605 153.028 441.648 154.162C440.692 155.296 439.365 156.055 437.903 156.305C438.877 152.936 440.301 149.715 442.138 146.728C442.787 147.735 443.132 148.909 443.13 150.108V150.108Z" fill="#F4AF90"/>
<path d="M475.191 143.408C474.565 145.194 472.436 150.696 471.26 153.726C470.779 154.955 470.451 155.779 470.451 155.779L467.078 154.55L464.659 153.672L463.804 153.367C463.804 153.367 463.804 153.726 463.713 154.352C463.469 156.676 463.022 158.974 462.377 161.22C461.613 164.015 460.366 166.655 458.691 169.02C454.112 175.125 442.222 174.499 436.735 169.783C432.919 166.471 433.682 160.411 437.002 154.107C438.576 151.196 440.467 148.468 442.642 145.972C442.642 145.972 439.963 152.253 439.528 153.604C439.001 155.29 440.978 155.13 441.741 153.695C442.504 152.261 443.977 151.269 448.251 152.413C452.525 153.558 454.265 155.771 453.471 158.862C453.005 160.686 456.394 161.319 458.889 158.915C459.103 158.711 459.302 158.492 459.485 158.259C459.827 157.835 460.122 157.375 460.362 156.885C462.652 152.222 463.987 145.087 464.117 142.278C461.56 142.439 459.355 140.493 460.805 138.073C457.806 139.333 455.577 137.181 456.089 134.311C454.791 136.349 451.876 136.219 451.51 133.807L449.22 136.936C448.779 135.751 448.572 134.492 448.61 133.227C448.778 129.412 452.021 128.023 454.585 128.9C454.982 126.145 461.454 125.596 461.927 129.534C463.316 126.969 467.918 127.496 468.032 131.457C468.63 131.132 469.317 131.007 469.991 131.1C470.666 131.193 471.293 131.5 471.78 131.975C472.268 132.45 472.591 133.068 472.702 133.74C472.813 134.411 472.706 135.101 472.397 135.708C474.496 135.25 475.839 137.997 474.031 139.966C474.053 140.004 476.083 140.897 475.191 143.408Z" fill="#BF8228"/>
<path d="M452.944 146.575C452.944 146.777 453.004 146.975 453.117 147.143C453.229 147.311 453.389 147.442 453.576 147.52C453.762 147.597 453.968 147.617 454.166 147.578C454.365 147.538 454.547 147.441 454.69 147.298C454.833 147.155 454.93 146.973 454.97 146.774C455.009 146.576 454.989 146.37 454.912 146.184C454.834 145.997 454.703 145.837 454.535 145.725C454.367 145.612 454.169 145.552 453.967 145.552C453.696 145.552 453.436 145.66 453.244 145.852C453.052 146.044 452.944 146.304 452.944 146.575V146.575Z" fill="#683F1D"/>
<path d="M446.404 144.385C446.403 144.588 446.461 144.787 446.573 144.956C446.685 145.125 446.845 145.258 447.032 145.336C447.219 145.414 447.425 145.435 447.624 145.396C447.823 145.357 448.006 145.259 448.15 145.116C448.293 144.972 448.391 144.789 448.43 144.59C448.469 144.391 448.448 144.185 448.37 143.998C448.292 143.811 448.159 143.651 447.99 143.539C447.821 143.428 447.622 143.369 447.419 143.37C447.151 143.372 446.894 143.48 446.704 143.67C446.514 143.86 446.406 144.117 446.404 144.385V144.385Z" fill="#683F1D"/>
<path d="M455.005 141.187C454.478 143.011 459.828 144.812 460.057 143.698C460.225 142.897 455.783 138.485 455.005 141.187Z" fill="#BF8228"/>
<path d="M447.419 138.768C447.106 139.745 451.601 141.431 452.128 139.79C452.754 137.837 447.694 137.928 447.419 138.768Z" fill="#BF8228"/>
<path d="M467.078 154.55L463.804 153.367C463.599 156.034 463.121 158.673 462.377 161.243C461.316 161.403 460.088 160.846 458.889 158.954C459.494 158.367 459.993 157.681 460.362 156.924C462.652 152.261 463.987 145.125 464.117 142.317C461.56 142.477 459.355 140.531 460.805 138.112C457.806 139.371 455.577 137.219 456.089 134.349C454.791 136.387 451.876 136.257 451.51 133.846L449.22 136.974C448.779 135.789 448.572 134.53 448.61 133.266C449.846 132.006 451.54 131.136 452.96 131.571C452.96 131.571 456.692 132.472 458.004 130.686C457.279 133.556 460.21 136.288 463.667 135.112C463.667 135.112 464.873 140.325 469.093 140.317C469.093 140.317 468.635 144.98 471.047 145.407C472.87 145.72 469.184 150.978 467.078 154.55Z" fill="#B57724"/>
<path d="M463.713 154.352C463.469 156.676 463.022 158.974 462.377 161.22C461.613 164.015 460.366 166.655 458.691 169.02C454.112 175.125 442.222 174.499 436.735 169.783C432.919 166.471 433.682 160.411 437.002 154.107C437.475 165.013 447.839 171.263 458.889 158.953L459.485 158.297C460.781 156.866 462.195 155.546 463.713 154.352V154.352Z" fill="#B57724"/>
<path d="M471.26 153.726C470.78 154.954 470.451 155.778 470.451 155.778L467.078 154.55L464.659 153.672C468.398 151.192 470.299 152.26 471.26 153.726Z" fill="#B57724"/>
<path d="M462.514 160.732C463.18 158.324 463.612 155.858 463.804 153.367C465.91 151.459 469.604 151.52 471.291 153.642C471.753 154.231 472.046 154.936 472.138 155.679C472.787 160.312 468.917 165.188 462.514 160.732Z" fill="#FEBD9D"/>
<path d="M467.361 162.487C465.6 162.43 463.903 161.815 462.514 160.732" stroke="#EF8A66" stroke-width="0.75" stroke-linecap="round" stroke-linejoin="round"/>
<path d="M444.695 149.009C445.03 147.071 446.106 147.071 448.136 146.72C450.166 146.369 451.739 144.56 451.517 142.729" stroke="#EF8A66" stroke-width="0.75" stroke-linecap="round" stroke-linejoin="round"/>
<path d="M465.193 156.496C465.521 156.132 465.931 155.851 466.389 155.675C466.846 155.499 467.339 155.434 467.827 155.486C468.314 155.537 468.783 155.703 469.194 155.97C469.605 156.238 469.947 156.598 470.192 157.023" stroke="#EF8A66" stroke-width="0.75" stroke-linecap="round" stroke-linejoin="round"/>
<path d="M466.162 155.809C469.627 155.481 469.101 160.686 465.75 159.724" stroke="#EF8A66" stroke-width="0.75" stroke-linecap="round" stroke-linejoin="round"/>
<path d="M434.911 167.349C438.177 165.158 442.542 166.265 446.061 169.409C450.739 173.591 458.386 169.409 458.386 169.409" stroke="#9B621F" stroke-width="0.75" stroke-linecap="round" stroke-linejoin="round"/>
<path d="M461.85 162.876C459.942 164.403 452.692 168.608 447.472 164.723C442.252 160.839 434.376 165.708 434.376 165.708" stroke="#9B621F" stroke-width="0.75" stroke-linecap="round" stroke-linejoin="round"/>
<path d="M434.522 160.572C436.208 159.045 442.352 155.787 446.351 160.137C450.35 164.487 455.562 160.511 455.562 160.511" stroke="#9B621F" stroke-width="0.75" stroke-linecap="round" stroke-linejoin="round"/>
<path d="M441.497 154.107C442.466 155.168 449.396 157.603 453.425 156.13" stroke="#9B621F" stroke-width="0.75" stroke-linecap="round" stroke-linejoin="round"/>
<path d="M451.494 133.846C451.067 131.655 453.021 129.083 454.6 128.938" stroke="#9B621F" stroke-width="0.75" stroke-linecap="round" stroke-linejoin="round"/>
<path d="M456.089 134.365C456.402 132.625 458.477 128.45 461.431 128.259" stroke="#9B621F" stroke-width="0.75" stroke-linecap="round" stroke-linejoin="round"/>
<path d="M460.805 138.112C461.568 134.723 463.804 131.075 467.361 129.572" stroke="#9B621F" stroke-width="0.75" stroke-linecap="round" stroke-linejoin="round"/>
<path d="M464.117 142.317C464.59 138.615 469.711 135.555 472.42 135.746" stroke="#9B621F" stroke-width="0.75" stroke-linecap="round" stroke-linejoin="round"/>
<path d="M463.308 147.766C466.628 144.911 472.382 142.385 475.419 142.179" stroke="#9B621F" stroke-width="0.75" stroke-linecap="round" stroke-linejoin="round"/>
<path d="M445.076 155.046C448.075 155.695 451.433 155.344 451.326 155.481C451.22 155.618 450.701 160.06 447.419 159.594C444.138 159.129 445.076 155.046 445.076 155.046Z" fill="white" stroke="#EF8A66" stroke-width="0.75" stroke-linecap="round" stroke-linejoin="round"/>
</g>
<g filter="url(#filter2_d_736_4640)">
<path d="M359.183 169.417C361.243 163.67 363.96 157.84 365.227 158.61C367.371 159.915 363.121 171.088 363.121 171.088L359.183 169.417Z" fill="#B25E47" stroke="#934735" stroke-width="0.75" stroke-miterlimit="10"/>
<path d="M356.527 170.729C356.527 170.371 357.794 153.94 360.19 154.314C363.441 154.802 360.854 171.103 360.854 171.103L356.527 170.729Z" fill="#B25E47" stroke="#934735" stroke-width="0.75" stroke-miterlimit="10"/>
<path d="M352.604 173.05C352.513 156.588 352.833 152.353 354.833 152.345C357.595 152.345 357.954 171.31 357.954 171.31L352.604 173.05Z" fill="#B25E47" stroke="#934735" stroke-width="0.75" stroke-miterlimit="10"/>
<path d="M361.831 172.05C361.35 179.826 361.121 183.955 361.121 183.955C361.121 183.955 354.161 187.771 353.711 178.43C353.261 169.089 361.831 172.05 361.831 172.05Z" fill="#B25E47" stroke="#934735" stroke-width="0.75" stroke-miterlimit="10"/>
<path d="M322.04 220.427C312.844 234.065 301.61 253.022 310.684 259.104C319.758 265.186 331.846 262.706 339.073 245.978C346.301 229.249 355.214 200.127 357 197.257C358.786 194.388 362.937 191.015 365.616 185.474C368.295 179.934 369.577 179.628 368.669 178.049C367.761 176.469 365.502 177.057 364.311 178.812C363.121 180.567 359.954 183.963 358.168 182.971C356.382 181.979 355.626 179.98 355.596 177.53C355.565 175.08 357.023 172.447 359.824 173.302C362.625 174.157 363.914 177.827 366.288 176.538C368.661 175.248 363.617 170.303 361.831 168.715C360.045 167.128 358.664 168.219 355.726 169.211C352.787 170.203 351.864 170.303 350.383 173.79C348.903 177.278 343.256 188.695 342.363 190.771C341.47 192.846 330.656 207.629 322.04 220.427Z" fill="#B25E47"/>
<path d="M365.616 185.497C368.287 179.949 369.577 179.651 368.669 178.071C367.761 176.491 365.502 177.079 364.311 178.834C363.121 180.59 359.954 183.986 358.168 182.994C356.382 182.001 355.626 180.002 355.596 177.552C355.565 175.102 357.023 172.47 359.824 173.324C362.625 174.179 363.914 177.85 366.288 176.56C368.661 175.27 363.617 170.325 361.831 168.738C360.045 167.15 358.664 168.242 355.726 169.234C352.788 170.226 351.864 170.325 350.384 173.813" stroke="#934735" stroke-width="0.75" stroke-linecap="round" stroke-linejoin="round"/>
<path d="M319.765 223.854C318.186 226.28 316.598 228.814 315.11 231.371" stroke="#934735" stroke-width="0.75" stroke-linecap="round" stroke-linejoin="round"/>
<path d="M180.809 233.393C178.291 237.308 183.48 240.261 188.166 243.314C192.852 246.367 194.081 232.477 194.081 232.477C194.081 232.477 182.198 231.233 180.809 233.393Z" fill="#71E24F"/>
<path d="M320.994 216.428C322.582 217.618 320.231 221.579 315.721 225.982L312.02 221.205C312.02 221.205 317.293 215.062 320.994 216.428Z" fill="#71E24F"/>
<path d="M313.515 217.618C324.077 228.798 336.334 243.512 329.824 254.685C323.314 265.858 307.776 259.928 298.374 251.358C298.374 251.358 290.72 236.629 313.515 217.618Z" fill="#B25E47"/>
<path d="M188.075 233.08C184.015 242.092 172.269 262.225 184.717 270.528C197.164 278.831 212.305 249.701 212.305 249.701C212.305 249.701 207.68 232.286 188.075 233.08Z" fill="#B25E47"/>
<path d="M320.994 216.428C312.476 222.737 305.801 231.211 301.663 240.971C300.181 244.299 299.077 247.783 298.374 251.358C295.932 249.587 290.163 245.252 290.163 245.252C289.735 247.946 289.178 251.045 288.636 254.174C286.965 263.156 285.042 272.314 285.042 272.314H227.95L226.988 268.498L219.524 238.918L212.305 249.686C212.16 249.511 212.015 249.343 211.855 249.183C203.46 240.109 180.809 233.377 180.809 233.377C186.964 222.996 194.309 213.368 202.697 204.69C205.152 202.183 207.732 199.802 210.428 197.555C214.202 194.565 218.341 192.067 222.745 190.122C227.753 187.847 232.943 185.996 238.26 184.589C238.26 184.589 238.382 172.439 239.71 158.076C240.298 151.597 253.447 150.33 256.5 161.35C259.552 172.37 261.842 179.453 261.842 179.453C265.125 178.968 268.447 178.791 271.763 178.926C275.968 179.094 280.753 179.865 284.5 182.024C286.515 183.192 290.537 186.68 295.184 191.007C306.288 201.332 320.994 216.428 320.994 216.428Z" fill="#65C947"/>
<path d="M301.664 240.971C300.181 244.299 299.077 247.783 298.374 251.358C295.932 249.587 290.163 245.252 290.163 245.252C291.871 236.89 292.715 228.374 292.681 219.839C292.661 216.081 291.762 212.381 290.056 209.033C295.352 212.017 299.748 215.268 297.176 222.35C294.742 228.913 295.116 239.872 301.664 240.971Z" fill="#71E24F"/>
<path d="M246.281 270.757L226.988 268.467L219.524 238.918C221.576 235.551 223.362 232.03 224.867 228.386C232.574 237.544 216.334 248.228 241.603 253.799C254.21 256.593 246.281 270.757 246.281 270.757Z" fill="#71E24F"/>
<path d="M295.207 191.022C288.514 191.632 282.012 196.73 277.929 210.353C270.572 234.904 243.679 232.019 234.429 215.031C227.187 201.721 218.265 200.226 202.682 204.705C205.137 202.199 207.717 199.817 210.412 197.57C214.187 194.58 218.326 192.082 222.73 190.137C227.738 187.862 232.928 186.011 238.245 184.604C238.245 184.604 238.367 172.454 239.695 158.092C240.283 151.612 253.432 150.345 256.484 161.365C259.537 172.386 261.827 179.468 261.827 179.468C265.11 178.983 268.431 178.807 271.748 178.941C275.953 179.109 280.738 179.88 284.485 182.04C286.53 183.207 290.552 186.695 295.207 191.022Z" fill="#71E24F"/>
<path d="M271.778 178.941C271.9 187.176 264.765 192.678 256.576 193.968C248.387 195.258 234.803 194.296 222.745 190.152C227.753 187.877 232.943 186.027 238.26 184.619C238.26 184.619 238.382 172.47 239.71 158.107C240.298 151.628 253.447 150.361 256.5 161.381C257.194 163.861 257.851 166.143 258.438 168.189C259.697 172.5 260.682 175.774 261.262 177.652C261.628 178.842 261.834 179.483 261.834 179.483C265.125 178.992 268.454 178.811 271.778 178.941V178.941Z" fill="#B25E47"/>
<path d="M261.277 177.636C254.042 178.216 249.83 173.927 249.883 168.196C249.883 168.196 254.95 168.196 258.453 168.196C259.713 172.523 260.697 175.759 261.277 177.636Z" fill="#914839"/>
<path d="M291.468 363.374H213.312C213.312 363.374 210.145 324.56 214.9 303.916C216.821 295.622 219.373 287.486 222.531 279.579C223.908 276.036 225.462 272.565 227.187 269.177L285.049 272.321C285.629 274.657 286.156 277.084 286.644 279.579C293.444 314.73 291.468 363.374 291.468 363.374Z" fill="#A7CAF0"/>
<path d="M232.222 315.17C234.93 312.214 234.729 307.623 231.773 304.916C228.817 302.208 224.226 302.409 221.519 305.365C218.812 308.321 219.013 312.912 221.968 315.619C224.924 318.327 229.515 318.125 232.222 315.17Z" stroke="white" stroke-miterlimit="10"/>
<path d="M239.265 364.637C242.099 361.803 242.099 357.208 239.265 354.373C236.431 351.539 231.835 351.539 229.001 354.373C226.167 357.208 226.167 361.803 229.001 364.637C231.835 367.472 236.431 367.472 239.265 364.637Z" stroke="white" stroke-miterlimit="10"/>
<path d="M269.196 316.775C272.031 313.941 272.031 309.345 269.196 306.511C266.362 303.677 261.767 303.677 258.932 306.511C256.098 309.345 256.098 313.941 258.932 316.775C261.767 319.609 266.362 319.609 269.196 316.775Z" stroke="white" stroke-miterlimit="10"/>
<path d="M271.795 368.659C275.697 367.742 278.116 363.835 277.199 359.933C276.281 356.031 272.375 353.612 268.473 354.529C264.571 355.446 262.151 359.353 263.069 363.255C263.986 367.157 267.893 369.576 271.795 368.659Z" stroke="white" stroke-miterlimit="10"/>
<path d="M261.927 290.118C265.827 289.193 268.239 285.281 267.314 281.381C266.39 277.481 262.478 275.069 258.578 275.994C254.678 276.919 252.266 280.83 253.191 284.73C254.115 288.63 258.027 291.042 261.927 290.118Z" stroke="white" stroke-miterlimit="10"/>
<path d="M249.86 339.556C252.305 339.556 254.286 337.574 254.286 335.129C254.286 332.685 252.305 330.703 249.86 330.703C247.415 330.703 245.434 332.685 245.434 335.129C245.434 337.574 247.415 339.556 249.86 339.556Z" stroke="white" stroke-miterlimit="10"/>
<path d="M291.033 328.437C293.477 328.437 295.459 326.455 295.459 324.01C295.459 321.566 293.477 319.584 291.033 319.584C288.588 319.584 286.606 321.566 286.606 324.01C286.606 326.455 288.588 328.437 291.033 328.437Z" stroke="white" stroke-miterlimit="10"/>
<path d="M292.147 292.736C292.147 293.612 291.887 294.468 291.401 295.196C290.915 295.923 290.223 296.491 289.414 296.826C288.606 297.161 287.716 297.248 286.857 297.078C285.998 296.907 285.21 296.485 284.591 295.866C283.972 295.247 283.55 294.459 283.379 293.6C283.208 292.741 283.296 291.851 283.631 291.043C283.966 290.234 284.533 289.542 285.261 289.056C285.989 288.57 286.845 288.31 287.721 288.31C288.894 288.31 290.02 288.776 290.85 289.607C291.681 290.437 292.147 291.562 292.147 292.736V292.736Z" stroke="white" stroke-miterlimit="10"/>
<path d="M218.654 337.45C218.654 338.325 218.395 339.181 217.908 339.909C217.422 340.637 216.731 341.204 215.922 341.539C215.113 341.874 214.223 341.962 213.365 341.791C212.506 341.62 211.717 341.199 211.098 340.58C210.479 339.961 210.058 339.172 209.887 338.313C209.716 337.455 209.804 336.565 210.139 335.756C210.474 334.947 211.041 334.256 211.769 333.769C212.497 333.283 213.353 333.023 214.228 333.023C215.401 333.025 216.526 333.492 217.356 334.322C218.185 335.152 218.652 336.276 218.654 337.45V337.45Z" stroke="white" stroke-miterlimit="10"/>
<path d="M234.131 292.736C236.576 292.736 238.558 290.754 238.558 288.31C238.558 285.865 236.576 283.883 234.131 283.883C231.687 283.883 229.705 285.865 229.705 288.31C229.705 290.754 231.687 292.736 234.131 292.736Z" stroke="white" stroke-miterlimit="10"/>
<path d="M236.97 184.94C236.97 184.94 246.525 201.439 258.171 208.498C258.171 208.498 264.642 199.035 263.582 179.239" stroke="#683F1D" stroke-miterlimit="10"/>
<path d="M255.011 209.002C255.011 209.665 255.208 210.312 255.576 210.863C255.944 211.414 256.467 211.844 257.079 212.097C257.692 212.351 258.365 212.417 259.015 212.288C259.665 212.159 260.262 211.84 260.73 211.371C261.199 210.903 261.518 210.306 261.647 209.656C261.777 209.006 261.71 208.332 261.457 207.72C261.203 207.108 260.774 206.585 260.223 206.216C259.672 205.848 259.024 205.652 258.361 205.652C257.473 205.652 256.621 206.005 255.993 206.633C255.364 207.261 255.011 208.114 255.011 209.002V209.002Z" fill="white"/>
<path d="M290.163 245.26C291.872 236.895 292.715 228.377 292.681 219.839C292.661 216.082 291.762 212.381 290.056 209.033C288.636 205.98 287.102 203.179 286.782 199.417" stroke="#71E24F" stroke-width="0.75" stroke-linecap="round" stroke-linejoin="round"/>
<path d="M225.843 226.043C225.843 226.043 225.485 226.975 224.874 228.402C223.37 232.046 221.583 235.567 219.532 238.933" stroke="#71E24F" stroke-width="0.75" stroke-linecap="round" stroke-linejoin="round"/>
<path d="M286.576 279.579H222.47C223.847 276.036 225.401 272.565 227.126 269.177L285.049 272.321C285.591 274.657 286.118 277.076 286.576 279.579Z" fill="#83ADDF"/>
<path d="M261.109 279.579V297.033" stroke="#83ADDF" stroke-width="0.75" stroke-linecap="round" stroke-linejoin="round"/>
<path d="M262.452 298.208C264.268 297.208 265.314 296.735 265.505 295.636C265.696 294.537 266.604 282.418 266.604 282.418" stroke="#83ADDF" stroke-width="0.75" stroke-linecap="round" stroke-linejoin="round"/>
<path d="M260.247 363.374C260.247 363.374 260.704 314.708 261.086 312.494C261.084 312.472 261.084 312.449 261.086 312.426C261.475 311.701 262.261 310.625 266.581 308.099" stroke="#83ADDF" stroke-width="0.75" stroke-linecap="round" stroke-linejoin="round"/>
<path d="M165.615 186.909C169.476 185.428 173.681 185.726 179.054 188.29C185.342 191.297 190.791 199.028 188.136 209.658C187.701 211.376 181.015 214.947 179.909 214.161C178.802 213.375 187.563 191.602 165.615 186.909Z" fill="white"/>
<path d="M234.948 158.313C231.529 157.985 229.377 159.389 227.782 162.297C226.187 165.204 224.172 168.104 224.172 168.104C224.172 168.104 228.324 169.798 232.376 165.197C236.146 160.908 234.948 158.313 234.948 158.313Z" fill="#71E24F"/>
<path d="M237.443 159.641C233.582 160.671 231.773 162.228 231.079 166.906C230.384 171.585 230.628 173.729 230.132 175.492C230.132 175.492 235.078 174.347 237.443 169.906C239.695 165.655 239.122 162.93 237.443 159.641Z" fill="#71E24F"/>
<path d="M242.312 134.67C242.312 134.67 238.588 142.76 238.497 149.544C238.439 151.079 238.667 152.611 239.168 154.062L235.039 154.543C231.506 157.939 225.118 156.771 227.408 152.437C223.592 154.818 218.593 151.559 221.074 148.117C218.105 148.819 216.594 144.019 220.417 142.775C217.235 142.432 216.601 136.754 220.913 136.426C220.537 136.035 220.279 135.547 220.169 135.016C220.058 134.485 220.1 133.934 220.289 133.426C220.478 132.918 220.806 132.474 221.237 132.144C221.667 131.815 222.182 131.614 222.722 131.564C223.172 131.551 223.618 131.64 224.028 131.825C224.438 132.011 224.801 132.287 225.088 132.633C223.241 125.978 231.048 123.856 233.444 127.352C233.864 124.536 239.145 124.246 239.931 127.878C243.915 125.68 246.51 131.022 242.312 134.67Z" fill="#604730"/>
<path d="M239.199 154.062L235.07 154.543C231.537 157.939 225.149 156.772 227.438 152.437C223.623 154.818 218.624 151.559 221.104 148.117C218.135 148.82 216.624 144.019 220.448 142.775C217.265 142.432 216.632 136.754 220.944 136.426C220.568 136.035 220.31 135.547 220.199 135.016C220.089 134.485 220.13 133.934 220.319 133.426C220.508 132.918 220.837 132.474 221.267 132.144C221.698 131.815 222.213 131.614 222.753 131.564C222.478 133.915 223.516 137.242 225.805 137.471C222.676 138.624 222.699 142.333 225.805 143.638C223.859 145.797 226.774 148.835 229.209 147.125C229.117 149.506 232.697 153.383 238.481 149.506C238.434 151.057 238.677 152.602 239.199 154.062V154.062Z" fill="#473526"/>
<path d="M262.01 172.027C250.921 173.553 241.244 161.068 241.244 161.068C236.184 162.838 232.262 158.908 233.841 154.962C234.127 154.229 234.611 153.59 235.238 153.116V153.116C235.746 152.735 236.333 152.475 236.955 152.352C237.433 152.262 237.922 152.244 238.405 152.299C239.332 152.405 240.217 152.744 240.978 153.284C241.739 153.825 242.35 154.549 242.755 155.39C243.106 156 245.464 155.893 244.411 153.207C243.488 150.872 242.48 151.047 242.48 151.047C244.007 150.567 242.793 147.148 240.954 147.636C242.48 146.98 243.015 144.087 241.305 143.057C243.144 142.958 245.159 142.225 244.411 139.424C244.749 139.833 245.199 140.135 245.706 140.293C246.212 140.452 246.754 140.459 247.265 140.315C247.776 140.171 248.234 139.882 248.583 139.483C248.933 139.084 249.159 138.591 249.234 138.066C249.574 138.397 250.002 138.623 250.467 138.716C250.933 138.808 251.415 138.764 251.855 138.587C252.296 138.411 252.676 138.111 252.949 137.723C253.222 137.335 253.376 136.876 253.394 136.402C253.623 137.433 254.828 137.738 255.782 137.166C257.935 139.516 259.852 142.072 261.506 144.797L261.567 144.896C262.498 146.346 263.376 147.812 264.169 149.269C270.191 160.312 271.77 170.676 262.01 172.027Z" fill="#B25E47"/>
<path d="M248.609 151.193C248.204 152.559 245.724 153.025 243.076 152.239C240.427 151.452 238.596 149.705 239 148.339C239.405 146.973 241.885 146.515 244.533 147.301C247.181 148.087 249.013 149.835 248.609 151.193Z" fill="#A0503D"/>
<path d="M264.215 149.323C263.124 150.086 262.048 150.33 261.346 149.842C260.285 149.125 260.437 147.034 261.613 144.95C262.544 146.4 263.421 147.865 264.215 149.323Z" fill="#A0503D"/>
<path d="M238.412 152.345C237.929 152.29 237.44 152.308 236.962 152.398C236.34 152.521 235.753 152.781 235.245 153.162V153.162C231.72 142.798 241.015 137.524 241.015 137.524C237.474 142.676 238.023 149.628 238.412 152.345Z" fill="white"/>
<path d="M256.538 144.691C256.536 144.892 256.594 145.09 256.705 145.259C256.816 145.428 256.974 145.56 257.16 145.639C257.346 145.718 257.551 145.74 257.749 145.703C257.948 145.666 258.131 145.57 258.275 145.429C258.42 145.288 258.519 145.107 258.561 144.91C258.603 144.712 258.585 144.507 258.51 144.319C258.435 144.132 258.307 143.97 258.14 143.856C257.974 143.741 257.777 143.679 257.576 143.676C257.44 143.673 257.306 143.697 257.18 143.746C257.054 143.796 256.94 143.87 256.843 143.965C256.746 144.059 256.669 144.172 256.617 144.297C256.565 144.421 256.538 144.555 256.538 144.691Z" fill="#683F1D"/>
<path d="M249.883 146.85C249.883 147.053 249.943 147.25 250.055 147.418C250.168 147.587 250.327 147.718 250.514 147.795C250.701 147.872 250.907 147.893 251.105 147.853C251.303 147.814 251.486 147.716 251.629 147.573C251.772 147.43 251.869 147.248 251.908 147.05C251.948 146.851 251.928 146.646 251.85 146.459C251.773 146.272 251.642 146.112 251.474 146C251.305 145.888 251.108 145.828 250.905 145.828C250.771 145.828 250.638 145.854 250.514 145.905C250.39 145.957 250.277 146.032 250.182 146.127C250.087 146.222 250.012 146.335 249.961 146.459C249.909 146.583 249.883 146.716 249.883 146.85V146.85Z" fill="#683F1D"/>
<path d="M256.69 136.197C256.503 136.604 256.204 136.951 255.828 137.196C254.874 137.799 253.668 137.494 253.439 136.433C253.422 136.907 253.267 137.366 252.994 137.754C252.721 138.142 252.341 138.442 251.901 138.618C251.461 138.795 250.978 138.839 250.513 138.747C250.048 138.654 249.62 138.428 249.28 138.097C249.205 138.622 248.979 139.115 248.629 139.514C248.28 139.913 247.822 140.202 247.311 140.346C246.8 140.49 246.258 140.482 245.752 140.324C245.245 140.166 244.795 139.864 244.457 139.455C245.22 142.256 243.19 142.989 241.351 143.088C243.06 144.103 242.488 146.995 241 147.667C242.801 147.179 244.052 150.598 242.526 151.078C242.526 151.078 243.533 150.903 244.457 153.238C245.51 155.924 243.152 156.031 242.801 155.421C242.296 154.352 241.457 153.475 240.411 152.925C239.365 152.374 238.168 152.179 237.001 152.368C236.498 150.264 236.397 148.084 236.703 145.942C237.18 142.72 238.706 139.745 241.046 137.479C239.397 134.869 242.503 131.457 245.098 133.426C244.762 131.053 248.853 129.55 250.402 132.389C251.295 129.84 255.088 131.396 254.66 133.281C255.897 132.61 257.576 134.365 256.69 136.197Z" fill="#604730"/>
<path d="M252.897 143.676C255.408 149.056 259.216 146.11 260.178 150.17" stroke="#934735" stroke-width="0.75" stroke-linecap="round" stroke-linejoin="round"/>
<path d="M250.776 152.681C255.126 153.909 258.163 153.108 258.881 152.681C258.881 152.681 259.308 156.542 255.416 156.229C254.367 156.205 253.352 155.848 252.518 155.21C251.684 154.573 251.074 153.687 250.776 152.681V152.681Z" fill="white" stroke="#934735" stroke-width="0.75" stroke-linecap="round" stroke-linejoin="round"/>
<path d="M236.123 157.1C236.665 154.36 240.939 154.39 241.732 158.313" stroke="#934735" stroke-width="0.75" stroke-linecap="round" stroke-linejoin="round"/>
<path d="M239.565 159.641C237.176 159.023 238.306 155.405 240.916 156.443" stroke="#934735" stroke-width="0.75" stroke-linecap="round" stroke-linejoin="round"/>
<path d="M246.311 144.423C246.12 145.698 250.89 142.943 249.906 141.371C248.921 139.799 246.487 143.187 246.311 144.423Z" fill="#604730"/>
<path d="M258.453 139.745C259.445 140.57 254.05 141.722 253.76 139.913C253.47 138.105 257.492 138.944 258.453 139.745Z" fill="#604730"/>
<path d="M211.924 250.465C208.039 249.693 204.116 249.132 200.171 248.786" stroke="#934735" stroke-width="0.75" stroke-linecap="round" stroke-linejoin="round"/>
<path d="M200.171 248.786C186.159 247.549 175.857 259.256 182.107 268.231C190.013 279.579 240.626 276.679 245.823 276.549C249.12 276.473 248.876 278.9 253.92 279.373C256.973 279.671 261.644 279.686 262.628 279.19C263.368 278.693 263.965 278.012 264.36 277.213C264.36 277.213 267.245 278.366 268.398 275.069C268.398 275.069 271.336 275.733 271.816 271.604C271.816 271.604 273.595 273.817 275.235 273.008C277.113 272.085 277.38 270.719 276.06 268.971C274.739 267.224 269.306 261.05 267.497 260.401C265.688 259.752 252.104 262.156 249.784 261.637C238.131 259.035 222.181 250.724 200.171 248.786Z" fill="#B25E47"/>
<path d="M259.461 279.571C260.53 279.611 261.599 279.482 262.628 279.19C263.368 278.693 263.965 278.012 264.36 277.213C264.36 277.213 267.245 278.366 268.398 275.069C268.398 275.069 271.336 275.733 271.817 271.604C271.817 271.604 273.595 273.817 275.235 273.008C277.113 272.085 277.38 270.719 276.06 268.971C274.739 267.224 269.306 261.05 267.497 260.401" stroke="#934735" stroke-width="0.75" stroke-linecap="round" stroke-linejoin="round"/>
<path d="M272.191 272.016L268.054 267.483" stroke="#934735" stroke-width="0.75" stroke-linecap="round" stroke-linejoin="round"/>
<path d="M268.398 275.069L264.063 272.322" stroke="#934735" stroke-width="0.75" stroke-linecap="round" stroke-linejoin="round"/>
<path d="M264.36 277.213L261.399 276.305" stroke="#934735" stroke-width="0.75" stroke-linecap="round" stroke-linejoin="round"/>
</g>
<g filter="url(#filter3_d_736_4640)">
<path d="M187.433 115.591L184.32 115.912L180.641 116.308L183.137 113.698L185.442 111.294L187.433 115.591Z" fill="white"/>
<path d="M175.261 208.498C184.923 214.603 193.722 207.857 196.149 195.57C199.728 177.43 202.804 131.602 202.804 131.602C202.804 131.602 207.711 120.979 209.275 117.14C210.84 113.301 210.588 109.89 208.314 108.906C208.314 108.906 206.024 101.808 202.498 101.587C201.821 101.225 201.113 100.921 200.384 100.679C198.621 100.32 195.378 101.946 194.523 102.846C193.669 103.747 196.507 104.693 198.125 104.426C199.743 104.159 200.926 108.242 200.201 109.966C199.476 111.691 196.385 115.156 195.286 114.255C194.187 113.355 193.844 110.241 194.294 107.807C194.745 105.372 194.432 104.151 192.806 105.097C191.181 106.044 188.029 113.935 188.387 115.377C188.746 116.82 190.822 122.772 190.959 123.772C191.097 124.772 175.238 176.964 172.109 186.023C168.98 195.082 168.431 204.186 175.261 208.498Z" fill="#FEBD9D"/>
<path d="M208.314 108.906C208.499 110.121 208.606 111.347 208.634 112.577" stroke="#EF8A66" stroke-width="0.75" stroke-linecap="round" stroke-linejoin="round"/>
<path d="M204.154 106.891C204.611 108.569 204.868 110.296 204.917 112.035" stroke="#EF8A66" stroke-width="0.75" stroke-linecap="round" stroke-linejoin="round"/>
<path d="M185.442 111.294L190.624 108.349C189.433 110.791 188.334 113.897 188.334 115.103L187.411 115.591C186.999 115.439 186.621 115.207 186.299 114.909C185.977 114.61 185.717 114.251 185.534 113.852C185.351 113.453 185.248 113.021 185.233 112.582C185.217 112.143 185.288 111.706 185.442 111.294V111.294Z" fill="#683F1D"/>
<path d="M184.32 115.911L180.641 116.308L183.137 113.698L184.32 115.911Z" fill="#683F1D"/>
<path d="M188.388 115.385C188.029 113.942 191.188 106.044 192.806 105.105C194.004 104.403 194.493 104.876 194.485 106.158C194.472 106.712 194.408 107.264 194.294 107.806C194.143 108.658 194.077 109.522 194.096 110.386C194.096 110.5 194.096 110.615 194.096 110.722V111.05C194.096 111.21 194.096 111.37 194.149 111.523L194.218 111.981C194.29 112.839 194.653 113.647 195.248 114.27C196.378 115.179 199.446 111.744 200.163 109.997C200.313 109.599 200.389 109.178 200.384 108.753" stroke="#EF8A66" stroke-width="0.75" stroke-linecap="round" stroke-linejoin="round"/>
<path d="M197.439 104.472C195.821 104.472 193.775 103.632 194.516 102.846C195.378 101.946 198.622 100.32 200.384 100.679C201.113 100.919 201.82 101.221 202.498 101.579" stroke="#EF8A66" stroke-width="0.75" stroke-linecap="round" stroke-linejoin="round"/>
<path d="M206.757 105.365C207.362 106.496 207.872 107.675 208.283 108.891C209.764 109.532 210.389 111.18 210.206 113.355" stroke="#EF8A66" stroke-width="0.75" stroke-linecap="round" stroke-linejoin="round"/>
<path d="M210.038 103.655L206.757 105.38L200.422 108.73L194.233 111.981C194.006 110.598 194.019 109.185 194.271 107.806C194.385 107.264 194.449 106.712 194.462 106.158L197.416 104.471L202.498 101.579L207.482 98.7554L210.038 103.655Z" fill="#683F1D"/>
<path d="M206.558 98.7554C206.276 100.045 207.192 103.815 209.565 104.571L211.091 103.624L208.153 97.8931L206.558 98.7554Z" fill="white"/>
<path d="M210.824 100.023C211.71 101.64 211.901 103.228 211.259 103.579C210.618 103.93 209.382 102.907 208.504 101.289C207.627 99.6715 207.428 98.0841 208.069 97.7331C208.711 97.382 209.939 98.4046 210.824 100.023Z" fill="#683F1D"/>
<path d="M188.388 115.385C188.029 113.942 191.188 106.044 192.806 105.105C194.004 104.403 194.493 104.876 194.485 106.158C194.472 106.712 194.408 107.264 194.294 107.806C194.143 108.658 194.077 109.522 194.096 110.386C194.096 110.5 194.096 110.615 194.096 110.722V111.05C194.096 111.21 194.096 111.37 194.149 111.523L194.218 111.981C194.29 112.839 194.653 113.647 195.248 114.27C196.378 115.179 199.446 111.744 200.163 109.997C200.313 109.599 200.389 109.178 200.384 108.753" stroke="#EF8A66" stroke-width="0.75" stroke-linecap="round" stroke-linejoin="round"/>
<path d="M102.211 194.373C99.9753 204.294 84.506 201.119 83.636 196.036C82.766 190.954 84.1702 189.694 85.3607 180.384C86.3376 172.752 99.2961 172.607 101.593 177.728C101.963 178.555 102.049 179.481 101.837 180.361C101.355 182.96 101.342 185.625 101.799 188.229C102.127 190.671 102.57 192.747 102.211 194.373Z" fill="#FEBD9D"/>
<path d="M101.837 180.361C101.355 182.961 101.342 185.626 101.799 188.23C95.1902 186.322 94.0378 178.904 94.0378 178.904L101.593 177.729C101.963 178.555 102.049 179.481 101.837 180.361Z" fill="#F4A789"/>
<path d="M62.5117 264.599L77.3933 270.307C77.3933 270.307 75.3251 287.509 75.1649 287.257C75.0046 287.005 50.1179 284.41 50.1179 284.41L62.5117 264.599Z" fill="#FEBD9D"/>
<path d="M40.8379 274.611C42.9137 282.113 48.1184 284.845 53.1019 284.677C58.0853 284.509 64.9843 281.892 67.5485 274.024C69.5098 268.002 65.259 260.783 65.259 260.783L40.8379 274.611Z" fill="white"/>
<path d="M69.1665 363.374C69.1665 363.374 71.0744 352.965 67.0373 335.74C65.3113 329.013 64.5406 322.077 64.7478 315.135C65.2133 304.512 68.5025 292.645 76.5997 276.504L128.495 274.375C130.815 281.594 132.921 288.228 134.814 294.278C140.56 312.594 144.475 325.796 147.215 334.725C150.863 346.6 157.029 363.382 157.029 363.382L69.1665 363.374Z" fill="#65C947"/>
<path d="M134.844 294.286C129.372 310.19 121.588 317.394 101.456 309.984C83.3537 303.329 76.7142 298.536 64.7783 315.143C65.2438 304.52 68.5331 292.652 76.6302 276.512L128.525 274.382C130.845 281.602 132.951 288.236 134.844 294.286Z" fill="#71E24F"/>
<path d="M130.013 247.534C127.151 258.638 129.8 270.696 130.96 273.337C132.12 275.977 131.173 277.786 129.487 278.099C127.8 278.412 78.0801 279.9 75.8517 279.579C73.6233 279.259 72.8983 277.572 72.8983 275.672C72.8983 273.772 68.9833 260.409 67.0754 255.067C67.0754 255.067 66.8693 269.979 62.7406 274.42C58.6119 278.862 49.0037 280.663 42.9671 277.389C41.8414 276.677 41.041 275.55 40.7387 274.253C38.4492 267.125 41.9903 250.846 44.4476 239.208C45.4245 234.538 46.8363 228.699 48.6374 222.869C52.2624 211.124 57.4748 199.386 63.9006 197.288C78.2328 192.61 88.6652 194.434 96.2663 193.724C98.6321 193.495 100.922 193.22 103.135 192.961H103.219C115.269 191.434 124.496 190.038 129.075 197.784C129.783 199.013 130.342 200.322 130.738 201.684C133.57 211.025 132.394 217.183 131.776 225.807C131.776 226.151 131.738 226.494 131.715 226.845C132.305 233.788 131.729 240.781 130.013 247.534V247.534Z" fill="#C3DCF8"/>
<path d="M67.0754 255.037C67.0754 255.037 66.8694 269.949 62.7407 274.39C58.612 278.832 49.0038 280.633 42.9672 277.359C41.8415 276.646 41.0411 275.52 40.7388 274.222C60.1765 280 66.6481 259.318 61.4662 255.502C56.4217 251.785 56.498 241.819 59.5812 236.637C61.6341 242.582 65.4957 250.152 67.0754 255.037Z" fill="#A7CAF0"/>
<path d="M129.067 197.707C123.565 201.905 118.955 207.277 117.101 214.245C115.849 218.931 113.819 222.586 111.079 225.181C103.654 232.248 91.0005 231.5 74.6307 222.289C63.2978 215.924 55.5517 217.275 48.6375 222.815C52.2625 211.07 57.4749 199.333 63.9007 197.234C78.2328 192.556 88.6652 194.38 96.2663 193.67C98.6321 193.441 100.922 193.167 103.135 192.907H103.219C115.261 191.411 124.488 189.992 129.067 197.707Z" fill="#D0E5F7"/>
<path d="M58.2686 231.34C58.4935 233.154 58.9342 234.935 59.5812 236.644C61.6341 242.582 65.4957 250.152 67.0754 255.036" stroke="#83ADDF" stroke-width="0.75" stroke-linecap="round" stroke-linejoin="round"/>
<path d="M183.961 211.215C180.809 213.314 162.99 218.29 148.955 222.319C143.335 223.957 137.585 225.109 131.769 225.761C126.636 226.356 121.458 226.45 116.307 226.043C114.534 225.896 112.776 225.607 111.049 225.181C89.1537 219.885 92.6414 194.8 103.097 192.892H103.181C118.098 190.263 133.143 188.416 148.253 187.359C154.801 186.954 161.486 186.771 167.935 186.939C193.012 187.618 187.113 209.155 183.961 211.215Z" fill="#C3DCF8"/>
<path d="M183.961 211.215C180.809 213.314 162.989 218.29 148.955 222.319C143.335 223.957 137.585 225.109 131.769 225.761C126.636 226.356 121.458 226.45 116.307 226.044" stroke="#83ADDF" stroke-width="0.75" stroke-linecap="round" stroke-linejoin="round"/>
<path d="M148.283 187.382C142.522 189.771 135.233 193.022 129.067 197.738C123.565 201.935 118.955 207.308 117.101 214.276C115.849 218.961 113.819 222.617 111.079 225.212C89.1842 219.915 92.6719 194.83 103.127 192.922H103.211C118.128 190.291 133.173 188.442 148.283 187.382V187.382Z" fill="#D0E5F7"/>
<path d="M165.615 186.909C169.476 185.428 173.681 185.726 179.054 188.29C185.342 191.297 190.791 199.028 188.136 209.658C187.701 211.376 181.015 214.947 179.909 214.161C178.802 213.375 187.563 191.602 165.615 186.909Z" fill="white"/>
<path d="M87.3907 181.253C100.647 184.39 107.34 183.039 109.049 176.056C110.759 169.073 103.638 158.458 103.638 158.458L104.203 154.642C102.622 153.913 101.079 153.106 99.5784 152.223C98.861 151.65 96.5257 145.736 94.3736 145.163C92.2215 144.591 77.1338 152.36 81.6212 165.181C86.1086 178.002 87.3907 181.253 87.3907 181.253Z" fill="#FEBD9D"/>
<path d="M100.258 162.098C99.7997 163.548 97.411 164.098 94.9154 163.319C92.4199 162.541 90.7791 160.724 91.2294 159.267C91.6796 157.809 94.076 157.26 96.5715 158.046C99.067 158.832 100.715 160.64 100.258 162.098Z" fill="#F4AF90"/>
<path d="M103.615 158.458L104.18 154.642C102.599 153.914 101.056 153.106 99.5554 152.223" stroke="#EF8A66" stroke-width="0.75" stroke-linecap="round" stroke-linejoin="round"/>
<path d="M92.7709 208.071C86.5359 209.597 84.9943 203.286 84.9943 203.286C79.9651 208.498 74.0201 207.003 72.6464 204.247C72.6464 204.247 67.5256 206.361 63.4274 203.286C57.7953 199.066 61.4661 192.785 61.4661 192.785C55.5592 191.258 56.6429 185.359 60.0313 182.864L60.535 182.513C64.0608 180.223 70.3951 178.697 68.0674 174.118C65.6406 169.241 63.6487 162.525 69.9143 158.771C69.9143 158.771 70.2348 151.528 74.7374 149.155C79.2401 146.781 79.5377 145.843 79.6369 144.5C79.9804 139.554 84.6509 134.884 89.9472 138.524C90.1151 138.639 90.2907 138.761 90.4586 138.89C96.1288 138.326 97.6246 143.66 96.6707 146.232C98.7007 152.887 93.8623 157.878 95.2359 160.205C96.8081 162.861 95.6099 166.036 95.6099 166.036C93.267 162.319 90.3822 161.144 88.398 164.327C86.7878 166.921 88.1004 170.317 93.3128 173.553C98.8915 177.018 96.2509 181.467 95.0299 184.817C94.3174 186.779 94.0781 188.881 94.3314 190.952C94.5847 193.024 95.3234 195.006 96.4875 196.738C99.1815 200.577 99.006 206.575 92.7709 208.071Z" fill="#7F542D"/>
<path d="M92.7709 208.071C86.5359 209.597 84.9943 203.286 84.9943 203.286C79.9651 208.498 74.0201 207.003 72.6464 204.248C72.6464 204.248 67.5256 206.362 63.4274 203.286C57.7953 199.066 61.4661 192.785 61.4661 192.785C55.5592 191.259 56.6429 185.359 60.0313 182.864L60.535 182.513C62.9084 189.175 67.2279 192.777 71.6314 191.739C77.4848 190.381 80.7893 187.16 86.2688 190.534C91.7483 193.907 93.3891 178.17 85.3606 175.797C77.3322 173.424 75.7906 159.923 82.7354 158.244C87.9325 157.023 92.603 146.515 89.9472 138.456C90.1151 138.57 90.2907 138.692 90.4586 138.822C96.1288 138.257 97.6246 143.592 96.6707 146.163C98.7007 152.818 93.8623 157.809 95.2359 160.137C96.8081 162.793 95.6099 165.968 95.6099 165.968C93.267 162.251 90.3822 161.076 88.398 164.258C86.7878 166.853 88.1004 170.249 93.3128 173.485C98.8915 176.949 96.2509 181.399 95.0299 184.749C94.3174 186.71 94.0781 188.812 94.3314 190.884C94.5847 192.955 95.3234 194.938 96.4875 196.669C99.1815 200.577 99.006 206.575 92.7709 208.071Z" fill="#704725"/>
<path d="M97.8384 155.939C97.8384 156.14 97.8979 156.336 98.0095 156.503C98.121 156.67 98.2795 156.8 98.465 156.877C98.6505 156.954 98.8545 156.974 99.0514 156.935C99.2483 156.896 99.4292 156.799 99.5711 156.657C99.7131 156.515 99.8097 156.334 99.8489 156.137C99.8881 155.94 99.868 155.736 99.7912 155.551C99.7143 155.365 99.5842 155.207 99.4173 155.095C99.2504 154.984 99.0542 154.924 98.8534 154.924C98.7198 154.923 98.5874 154.949 98.4638 155C98.3402 155.05 98.2279 155.125 98.1334 155.219C98.039 155.314 97.9642 155.426 97.9136 155.55C97.863 155.673 97.8374 155.806 97.8384 155.939Z" fill="#683F1D"/>
<path d="M61.4434 192.792C64.3357 187.061 66.9686 187.229 69.426 185.336C71.8834 183.444 72.9595 179.506 72.4787 177.705" stroke="#A56F42" stroke-width="0.75" stroke-linecap="round" stroke-linejoin="round"/>
<path d="M72.6465 204.248C71.8658 202.98 71.518 201.493 71.6556 200.011C71.7933 198.528 72.4089 197.131 73.4097 196.028" stroke="#A56F42" stroke-width="0.75" stroke-linecap="round" stroke-linejoin="round"/>
<path d="M84.9943 203.286C84.6211 202.317 84.4561 201.279 84.51 200.242C84.5639 199.205 84.8355 198.19 85.3072 197.265" stroke="#A56F42" stroke-width="0.75" stroke-linecap="round" stroke-linejoin="round"/>
<path d="M80.2705 149.506C83.6589 148.743 83.9871 146.324 85.0021 144.332C86.0171 142.34 87.5892 139.257 90.4587 138.837" stroke="#A56F42" stroke-width="0.75" stroke-linecap="round" stroke-linejoin="round"/>
<path d="M96.6706 146.179C95.6403 143.889 92.374 141.149 89.3442 143.889" stroke="#A56F42" stroke-width="0.75" stroke-linecap="round" stroke-linejoin="round"/>
<path d="M90.7866 168.57C90.7179 165.7 93.5493 165.029 95.7472 167.219" stroke="#EF8A66" stroke-width="0.75" stroke-linecap="round" stroke-linejoin="round"/>
<path d="M94.5947 169.814C92.3816 169.814 92.3052 166.494 95.1213 166.685" stroke="#EF8A66" stroke-width="0.75" stroke-linecap="round" stroke-linejoin="round"/>
<path d="M101.456 162.747C101.864 163.264 102.41 163.655 103.032 163.872C103.654 164.09 104.325 164.126 104.966 163.976" stroke="#EF8A66" stroke-width="0.75" stroke-linecap="round" stroke-linejoin="round"/>
<path d="M90.4434 171.34C92.1223 172.691 95.1521 172.5 95.1521 172.5" stroke="#EF8A66" stroke-width="0.75" stroke-linecap="round" stroke-linejoin="round"/>
<path d="M96.9607 174.118C98.1493 174.118 99.1128 173.154 99.1128 171.966C99.1128 170.777 98.1493 169.813 96.9607 169.813C95.7721 169.813 94.8086 170.777 94.8086 171.966C94.8086 173.154 95.7721 174.118 96.9607 174.118Z" fill="white"/>
<path d="M95.3275 154.97C96.3806 155.657 98.9143 150.788 96.9301 149.452C94.9459 148.117 93.908 154.047 95.3275 154.97Z" fill="#7F542D"/>
</g>
<g filter="url(#filter4_d_736_4640)">
<path d="M522.705 359.505H49.4158C45.2474 359.505 41.8682 362.884 41.8682 367.053V368.235C41.8682 372.404 45.2474 375.783 49.4158 375.783H522.705C526.874 375.783 530.253 372.404 530.253 368.235V367.053C530.253 362.884 526.874 359.505 522.705 359.505Z" fill="#EDEDED"/>
</g>
<path d="M56.5056 427.784C69.0215 421.801 87.5892 420.48 101.738 427.784" stroke="#DDDDDD" stroke-width="0.75" stroke-linecap="round" stroke-linejoin="round"/>
<g filter="url(#filter5_d_736_4640)">
<path d="M52.186 359.498C64.5263 366.366 72.7303 365.809 87.9554 365.603C99.296 365.458 112.949 371.235 122.038 375.776" stroke="#DDDDDD" stroke-width="0.75" stroke-linecap="round" stroke-linejoin="round" shape-rendering="crispEdges"/>
</g>
<g filter="url(#filter6_d_736_4640)">
<path d="M110.759 359.498C119.711 369.564 125.923 370.823 128.93 368.228C132.12 365.473 135.401 364.725 138.79 367.633C142.712 371.006 148.169 364.176 151.237 359.498" stroke="#DDDDDD" stroke-width="0.75" stroke-linecap="round" stroke-linejoin="round" shape-rendering="crispEdges"/>
</g>
<path d="M145.666 427.783C149.283 424.448 155.732 420.327 165.775 419.64C177.68 418.877 192.806 424.357 200.88 427.783" stroke="#DDDDDD" stroke-width="0.75" stroke-linecap="round" stroke-linejoin="round"/>
<g filter="url(#filter7_d_736_4640)">
<path d="M185.251 359.498C199.217 366.824 214.48 371.113 226.812 367.633C238.848 364.252 267.588 368.465 278.043 359.498" stroke="#DDDDDD" stroke-width="0.75" stroke-linecap="round" stroke-linejoin="round" shape-rendering="crispEdges"/>
</g>
<path d="M238.222 427.783C247.166 422.693 261.117 419.579 271.969 427.783" stroke="#DDDDDD" stroke-width="0.75" stroke-linecap="round" stroke-linejoin="round"/>
<g filter="url(#filter8_d_736_4640)">
<path d="M287.339 375.783C303.968 362.855 337.166 360.52 364.891 367.571C397.707 375.928 412.421 366.282 418.381 359.505" stroke="#DDDDDD" stroke-width="0.75" stroke-linecap="round" stroke-linejoin="round" shape-rendering="crispEdges"/>
</g>
<path d="M317.24 427.783C329.282 422.373 345.476 421.258 362.579 427.783" stroke="#DDDDDD" stroke-width="0.75" stroke-linecap="round" stroke-linejoin="round"/>
<path d="M422.212 427.784C442.375 418.397 458.508 419.488 473.466 427.784" stroke="#DDDDDD" stroke-width="0.75" stroke-linecap="round" stroke-linejoin="round"/>
<g filter="url(#filter9_d_736_4640)">
<path d="M450.655 359.498C483.876 370.655 511.365 379.294 529.475 364.153" stroke="#DDDDDD" stroke-width="0.75" stroke-linecap="round" stroke-linejoin="round" shape-rendering="crispEdges"/>
</g>
<g filter="url(#filter10_d_736_4640)">
<path d="M477.152 359.498C494.011 369.419 513.7 368.655 525.819 360.39" stroke="#DDDDDD" stroke-width="0.75" stroke-linecap="round" stroke-linejoin="round" shape-rendering="crispEdges"/>
</g>
<defs>
<filter id="filter0_d_736_4640" x="42.3613" y="0" width="474.051" height="345.382" filterUnits="userSpaceOnUse" color-interpolation-filters="sRGB">
<feFlood flood-opacity="0" result="BackgroundImageFix"/>
<feColorMatrix in="SourceAlpha" type="matrix" values="0 0 0 0 0 0 0 0 0 0 0 0 0 0 0 0 0 0 127 0" result="hardAlpha"/>
<feOffset/>
<feGaussianBlur stdDeviation="20"/>
<feComposite in2="hardAlpha" operator="out"/>
<feColorMatrix type="matrix" values="0 0 0 0 0 0 0 0 0 0 0 0 0 0 0 0 0 0 0.25 0"/>
<feBlend mode="normal" in2="BackgroundImageFix" result="effect1_dropShadow_736_4640"/>
<feBlend mode="normal" in="SourceGraphic" in2="effect1_dropShadow_736_4640" result="shape"/>
</filter>
<filter id="filter1_d_736_4640" x="257.997" y="40.8276" width="318.234" height="362.922" filterUnits="userSpaceOnUse" color-interpolation-filters="sRGB">
<feFlood flood-opacity="0" result="BackgroundImageFix"/>
<feColorMatrix in="SourceAlpha" type="matrix" values="0 0 0 0 0 0 0 0 0 0 0 0 0 0 0 0 0 0 127 0" result="hardAlpha"/>
<feOffset/>
<feGaussianBlur stdDeviation="20"/>
<feComposite in2="hardAlpha" operator="out"/>
<feColorMatrix type="matrix" values="0 0 0 0 0 0 0 0 0 0 0 0 0 0 0 0 0 0 0.25 0"/>
<feBlend mode="normal" in2="BackgroundImageFix" result="effect1_dropShadow_736_4640"/>
<feBlend mode="normal" in="SourceGraphic" in2="effect1_dropShadow_736_4640" result="shape"/>
</filter>
<filter id="filter2_d_736_4640" x="125.615" y="85.1958" width="283.718" height="324.158" filterUnits="userSpaceOnUse" color-interpolation-filters="sRGB">
<feFlood flood-opacity="0" result="BackgroundImageFix"/>
<feColorMatrix in="SourceAlpha" type="matrix" values="0 0 0 0 0 0 0 0 0 0 0 0 0 0 0 0 0 0 127 0" result="hardAlpha"/>
<feOffset/>
<feGaussianBlur stdDeviation="20"/>
<feComposite in2="hardAlpha" operator="out"/>
<feColorMatrix type="matrix" values="0 0 0 0 0 0 0 0 0 0 0 0 0 0 0 0 0 0 0.25 0"/>
<feBlend mode="normal" in2="BackgroundImageFix" result="effect1_dropShadow_736_4640"/>
<feBlend mode="normal" in="SourceGraphic" in2="effect1_dropShadow_736_4640" result="shape"/>
</filter>
<filter id="filter3_d_736_4640" x="0" y="57.6641" width="251.638" height="345.718" filterUnits="userSpaceOnUse" color-interpolation-filters="sRGB">
<feFlood flood-opacity="0" result="BackgroundImageFix"/>
<feColorMatrix in="SourceAlpha" type="matrix" values="0 0 0 0 0 0 0 0 0 0 0 0 0 0 0 0 0 0 127 0" result="hardAlpha"/>
<feOffset/>
<feGaussianBlur stdDeviation="20"/>
<feComposite in2="hardAlpha" operator="out"/>
<feColorMatrix type="matrix" values="0 0 0 0 0 0 0 0 0 0 0 0 0 0 0 0 0 0 0.25 0"/>
<feBlend mode="normal" in2="BackgroundImageFix" result="effect1_dropShadow_736_4640"/>
<feBlend mode="normal" in="SourceGraphic" in2="effect1_dropShadow_736_4640" result="shape"/>
</filter>
<filter id="filter4_d_736_4640" x="1.86816" y="319.505" width="568.385" height="96.2783" filterUnits="userSpaceOnUse" color-interpolation-filters="sRGB">
<feFlood flood-opacity="0" result="BackgroundImageFix"/>
<feColorMatrix in="SourceAlpha" type="matrix" values="0 0 0 0 0 0 0 0 0 0 0 0 0 0 0 0 0 0 127 0" result="hardAlpha"/>
<feOffset/>
<feGaussianBlur stdDeviation="20"/>
<feComposite in2="hardAlpha" operator="out"/>
<feColorMatrix type="matrix" values="0 0 0 0 0 0 0 0 0 0 0 0 0 0 0 0 0 0 0.25 0"/>
<feBlend mode="normal" in2="BackgroundImageFix" result="effect1_dropShadow_736_4640"/>
<feBlend mode="normal" in="SourceGraphic" in2="effect1_dropShadow_736_4640" result="shape"/>
</filter>
<filter id="filter5_d_736_4640" x="11.811" y="319.123" width="150.602" height="97.0283" filterUnits="userSpaceOnUse" color-interpolation-filters="sRGB">
<feFlood flood-opacity="0" result="BackgroundImageFix"/>
<feColorMatrix in="SourceAlpha" type="matrix" values="0 0 0 0 0 0 0 0 0 0 0 0 0 0 0 0 0 0 127 0" result="hardAlpha"/>
<feOffset/>
<feGaussianBlur stdDeviation="20"/>
<feComposite in2="hardAlpha" operator="out"/>
<feColorMatrix type="matrix" values="0 0 0 0 0 0 0 0 0 0 0 0 0 0 0 0 0 0 0.25 0"/>
<feBlend mode="normal" in2="BackgroundImageFix" result="effect1_dropShadow_736_4640"/>
<feBlend mode="normal" in="SourceGraphic" in2="effect1_dropShadow_736_4640" result="shape"/>
</filter>
<filter id="filter6_d_736_4640" x="70.3838" y="319.123" width="121.228" height="90.645" filterUnits="userSpaceOnUse" color-interpolation-filters="sRGB">
<feFlood flood-opacity="0" result="BackgroundImageFix"/>
<feColorMatrix in="SourceAlpha" type="matrix" values="0 0 0 0 0 0 0 0 0 0 0 0 0 0 0 0 0 0 127 0" result="hardAlpha"/>
<feOffset/>
<feGaussianBlur stdDeviation="20"/>
<feComposite in2="hardAlpha" operator="out"/>
<feColorMatrix type="matrix" values="0 0 0 0 0 0 0 0 0 0 0 0 0 0 0 0 0 0 0.25 0"/>
<feBlend mode="normal" in2="BackgroundImageFix" result="effect1_dropShadow_736_4640"/>
<feBlend mode="normal" in="SourceGraphic" in2="effect1_dropShadow_736_4640" result="shape"/>
</filter>
<filter id="filter7_d_736_4640" x="144.876" y="319.123" width="173.543" height="90.1138" filterUnits="userSpaceOnUse" color-interpolation-filters="sRGB">
<feFlood flood-opacity="0" result="BackgroundImageFix"/>
<feColorMatrix in="SourceAlpha" type="matrix" values="0 0 0 0 0 0 0 0 0 0 0 0 0 0 0 0 0 0 127 0" result="hardAlpha"/>
<feOffset/>
<feGaussianBlur stdDeviation="20"/>
<feComposite in2="hardAlpha" operator="out"/>
<feColorMatrix type="matrix" values="0 0 0 0 0 0 0 0 0 0 0 0 0 0 0 0 0 0 0.25 0"/>
<feBlend mode="normal" in2="BackgroundImageFix" result="effect1_dropShadow_736_4640"/>
<feBlend mode="normal" in="SourceGraphic" in2="effect1_dropShadow_736_4640" result="shape"/>
</filter>
<filter id="filter8_d_736_4640" x="246.964" y="319.13" width="211.792" height="97.0283" filterUnits="userSpaceOnUse" color-interpolation-filters="sRGB">
<feFlood flood-opacity="0" result="BackgroundImageFix"/>
<feColorMatrix in="SourceAlpha" type="matrix" values="0 0 0 0 0 0 0 0 0 0 0 0 0 0 0 0 0 0 127 0" result="hardAlpha"/>
<feOffset/>
<feGaussianBlur stdDeviation="20"/>
<feComposite in2="hardAlpha" operator="out"/>
<feColorMatrix type="matrix" values="0 0 0 0 0 0 0 0 0 0 0 0 0 0 0 0 0 0 0.25 0"/>
<feBlend mode="normal" in2="BackgroundImageFix" result="effect1_dropShadow_736_4640"/>
<feBlend mode="normal" in="SourceGraphic" in2="effect1_dropShadow_736_4640" result="shape"/>
</filter>
<filter id="filter9_d_736_4640" x="410.28" y="319.123" width="159.569" height="93.5322" filterUnits="userSpaceOnUse" color-interpolation-filters="sRGB">
<feFlood flood-opacity="0" result="BackgroundImageFix"/>
<feColorMatrix in="SourceAlpha" type="matrix" values="0 0 0 0 0 0 0 0 0 0 0 0 0 0 0 0 0 0 127 0" result="hardAlpha"/>
<feOffset/>
<feGaussianBlur stdDeviation="20"/>
<feComposite in2="hardAlpha" operator="out"/>
<feColorMatrix type="matrix" values="0 0 0 0 0 0 0 0 0 0 0 0 0 0 0 0 0 0 0.25 0"/>
<feBlend mode="normal" in2="BackgroundImageFix" result="effect1_dropShadow_736_4640"/>
<feBlend mode="normal" in="SourceGraphic" in2="effect1_dropShadow_736_4640" result="shape"/>
</filter>
<filter id="filter10_d_736_4640" x="436.777" y="319.123" width="129.417" height="88.0161" filterUnits="userSpaceOnUse" color-interpolation-filters="sRGB">
<feFlood flood-opacity="0" result="BackgroundImageFix"/>
<feColorMatrix in="SourceAlpha" type="matrix" values="0 0 0 0 0 0 0 0 0 0 0 0 0 0 0 0 0 0 127 0" result="hardAlpha"/>
<feOffset/>
<feGaussianBlur stdDeviation="20"/>
<feComposite in2="hardAlpha" operator="out"/>
<feColorMatrix type="matrix" values="0 0 0 0 0 0 0 0 0 0 0 0 0 0 0 0 0 0 0.25 0"/>
<feBlend mode="normal" in2="BackgroundImageFix" result="effect1_dropShadow_736_4640"/>
<feBlend mode="normal" in="SourceGraphic" in2="effect1_dropShadow_736_4640" result="shape"/>
</filter>
</defs>
</svg>
